<?xml version="1.0" encoding="utf-8"?>
<!-- Generator: Adobe Illustrator 22.0.0, SVG Export Plug-In . SVG Version: 6.00 Build 0)  -->
<svg version="1.1" id="Layer_1" xmlns="http://www.w3.org/2000/svg" xmlns:xlink="http://www.w3.org/1999/xlink" x="0px" y="0px"
	 viewBox="0 0 1000 700" style="enable-background:new 0 0 1000 700;" xml:space="preserve">
<style type="text/css">
	.st0{fill:#DCF0FF;}
	.st1{fill:#F2A638;}
	.st2{fill:#FFF4E1;}
	.st3{fill:#FFB640;}
	.st4{fill:#03466B;}
	.st5{fill:#0C5B91;}
	.st6{fill:#FFFFFF;}
	.st7{fill:#586385;}
	.st8{fill:#6588E0;}
	.st9{fill:#332966;}
	.st10{fill:#43BF8D;}
	.st11{fill:#FAAA91;}
	.st12{fill:#FFC973;}
	.st13{fill:none;stroke:#FFFFFF;stroke-width:0.5316;stroke-linecap:round;stroke-linejoin:round;stroke-miterlimit:10;}
	.st14{fill:#001C49;}
	.st15{fill:#E09279;}
	.st16{fill:#21DED5;}
	.st17{fill:none;stroke:#332966;stroke-width:0.1415;stroke-linecap:round;stroke-linejoin:round;stroke-miterlimit:10;}
	.st18{fill:#A64C4B;}
	.st19{opacity:0.7;fill:#1C75BC;}
	.st20{fill:#1C75BC;}
	.st21{fill:#3CA1E5;}
	.st22{opacity:0.46;}
	.st23{opacity:0;fill:#1C75BC;}
	.st24{opacity:0.63;fill:#DCF0FF;}
	.st25{fill:none;stroke:#FFFFFF;stroke-width:7.111;stroke-linecap:round;stroke-linejoin:round;stroke-miterlimit:10;}
	.st26{fill:#EEEDFF;}
	.st27{fill:#E8ECFF;}
	.st28{fill:#157E96;}
	.st29{fill:#2897B5;}
	.st30{fill:#E1E5F7;}
	.st31{opacity:0.24;fill:#3CA1E5;}
	.st32{fill:#7D6DC7;}
	.st33{fill:#F7A42B;}
	.st34{fill:#D17E11;}
	.st35{fill:#FBC02D;}
	.st36{opacity:0.6;fill:#DCF0FF;}
	.st37{fill:none;stroke:#332966;stroke-width:0.1439;stroke-linecap:round;stroke-linejoin:round;stroke-miterlimit:10;}
	.st38{opacity:0.28;fill:#DBE3FF;}
	.st39{opacity:0.4;fill:#A8C4E5;}
	.st40{opacity:0.6;fill:#FFF4E1;}
	.st41{fill:none;stroke:#FFFFFF;stroke-width:3.1897;stroke-linecap:round;stroke-linejoin:round;stroke-miterlimit:10;}
	.st42{opacity:0.3;fill:#FFF4E1;}
	.st43{fill:#DBA00B;}
	.st44{opacity:0.51;fill:#FFFFFF;}
	.st45{fill:none;stroke:#E9EDFC;stroke-width:1.599;stroke-linecap:round;stroke-linejoin:round;stroke-miterlimit:10;}
</style>
<path class="st0" d="M831.6,351L586.1,209.3c-9.7-5.6-14.2-17.2-10.7-27.8l49.3-153.6c4.6-14.4,21.4-20.9,34.5-13.3l245.5,141.7
	c9.7,5.6,14.2,17.2,10.7,27.8l-49.3,153.6C861.4,352.1,844.7,358.6,831.6,351z"/>
<g>
	<path class="st1" d="M341.8,165l110.8-63.4c1.4-0.8,3.1,0.2,3.1,1.8l-0.7,175c0,0.7-0.4,1.4-1,1.8l-110.8,63.4
		c-1.4,0.8,6.6-11.3-3.1-1.8l0.7-175C340.8,166,341.2,165.4,341.8,165z"/>
	<path class="st1" d="M345.1,166.9l110.8-63.4c1.4-0.8,3.1,0.2,3.1,1.8l-0.7,175c0,0.7-0.4,1.4-1,1.8l-110.8,63.4
		c-0.5-0.9-1.5-2.1-3.1-1.8l0.7-175C344.1,167.9,344.4,167.2,345.1,166.9z"/>
	<polygon class="st2" points="486.9,133.9 479.4,129.5 457.7,116.9 450.1,112.4 353.5,167.5 361,171.9 382.7,184.6 390.3,189 	"/>
	<path class="st1" d="M387.3,191.5l110.8-63.4c1.4-0.8,3.1,0.2,3.1,1.8l-0.7,175c0,0.7-0.4,1.4-1,1.8L388.6,370
		c-1.4,0.8-3.1-0.2-3.1-1.8l0.7-175C386.3,192.5,386.6,191.8,387.3,191.5z"/>
	<path class="st3" d="M386.1,193.3l-16.3-9.5l-12.9-7.5l-16.3-9.5l-0.4,174c0,1.8,2.3,3.6,3.8,4.5l13.6,7.5l9.5,5.5l19.6,11.8
		L386.1,193.3z"/>
	<path class="st4" d="M509,138.5l-0.3-0.2l-0.7,171c0,0.7-0.4,1.4-1,1.8l-110.8,63.4c-1.4,0.8,6.6-11.3-3.1-1.8l0.7-175
		c0-0.7,0.4-1.4,1-1.8l110.8-63.4c0.6-0.3,1.2-0.3,1.7-0.1l0-0.1l3.9,2.3L509,138.5z"/>
	<path class="st4" d="M398.1,197.8l110.8-63.4c1.4-0.8,3.1,0.2,3.1,1.8l-0.7,175c0,0.7-0.4,1.4-1,1.8l-110.8,63.4
		c-0.5-0.9-1.5-2.1-3.1-1.8l0.7-175C397,198.8,397.4,198.1,398.1,197.8z"/>
	<polygon class="st2" points="544.8,166 537.3,161.5 515.6,148.9 508,144.5 411.4,199.6 418.9,204 440.6,216.6 448.2,221 	"/>
	<path class="st5" d="M440.3,222.4L551.1,159c1.4-0.8,3.1,0.2,3.1,1.8l-0.7,175c0,0.7-0.4,1.4-1,1.8l-110.8,63.4
		c-1.4,0.8-3.1-0.2-3.1-1.8l0.7-175C439.3,223.4,439.6,222.7,440.3,222.4z"/>
	<path class="st5" d="M439.1,224.2l-16.3-9.5l-12.9-7.5l-16.3-9.5l-0.4,174c0,1.8,2.3,3.6,3.8,4.5l13.6,7.5l9.5,5.5l19.6,11.8
		L439.1,224.2z"/>
	<path class="st6" d="M428,238.2l-0.2,38.4c0,0.2,0.1,0.4,0,0.5l-0.2,42.3c0,0.6-0.1,1.2-0.2,1.7l0,0.5c0,0.2,0.1,0.4,0,0.5
		l-0.2,42.3c0,4.8-4,6.4-8.7,3.7l-6.8-4c-4.8-2.8-8.7-9-8.7-13.8l0.2-38.4c0-0.2-0.1-0.4,0-0.5l0.2-42.3c0-0.6,0.1-1.2,0.2-1.7
		l0-0.5c0-0.2-0.1-0.4-0.1-0.5l0.2-42.3c0-4.8,4-6.4,8.7-3.7l6.8,4C424.1,227.2,428,233.4,428,238.2z"/>
	<path class="st6" d="M374.9,245.7c0,0.2,0.1,0.4,0.1,0.5l-0.2,42.3c0,0.6-0.1,1.2-0.2,1.7l0,0.5c0,0.2,0.1,0.4,0.1,0.5l-0.2,42.3
		c0,4.8-4,6.4-8.7,3.7l-6.8-4c-4.8-2.8-8.7-9-8.7-13.8l0.2-38.4c0-0.2-0.1-0.4-0.1-0.5l0.2-42.3c0-0.6,0.1-1.2,0.2-1.7l0-0.5
		c0-0.2-0.1-0.4-0.1-0.5l0.2-42.3c0-4.8,4-6.4,8.7-3.7l6.8,4c4.8,2.8,8.7,9,8.7,13.8"/>
</g>
<path class="st4" d="M164.8,407.1L164.8,407.1c-1.2-0.2-2-1.3-1.8-2.5l8.1-46.9c0.2-1.2,1.3-2,2.5-1.8l0,0c1.2,0.2,2,1.3,1.8,2.5
	l-8.1,46.9C167.1,406.5,166,407.3,164.8,407.1z"/>
<g>
	<path class="st5" d="M220.1,344.9l27.2,22.1c4.5,2.9,7.9,0.2,8-4.6l0.7-7.7c0.1-4.8-3.5-11-7.9-13.9L220.5,323
		c-4.5-2.9-8.2-1.3-8.3,3.4l-0.1,4.6C212,335.8,215.6,342.1,220.1,344.9z"/>
	<path class="st5" d="M221.1,342.8L208,305.4c-2.2-6.1-8.5-9-13.7-6.1l-20.9,11.5c-3.8,2.1-6,6.6-5.5,11.3l5,48.4L221.1,342.8z"/>
	<path class="st7" d="M252.7,414l0.4,0c1.7-0.2,2.9-1.8,2.7-3.5l-6.2-49.4c-0.2-1.7-1.8-2.9-3.5-2.7l-0.4,0
		c-1.7,0.2-2.9,1.8-2.7,3.5l6.2,49.4C249.4,413,251,414.2,252.7,414z"/>
	<path class="st7" d="M178.1,414.1l-0.8-0.1c-1.6-0.3-2.6-1.8-2.4-3.3l7.3-42.4c0.3-1.6,1.8-2.6,3.3-2.4l0.8,0.1
		c1.6,0.3,2.6,1.8,2.4,3.3l-7.3,42.4C181.2,413.3,179.7,414.3,178.1,414.1z"/>
	<path class="st7" d="M215.9,435.3L215.9,435.3c1.8-0.2,3.1-1.9,2.9-3.7l-7-55.8c-0.2-1.8-1.9-3.1-3.7-2.9l0,0
		c-1.8,0.2-3.1,1.9-2.9,3.7l7,55.8C212.4,434.2,214.1,435.5,215.9,435.3z"/>
	<path class="st4" d="M209.4,387.6l40.2-22c3.7-2,2.3-6.7-3.1-10.4l-14.1-9.6c-5.4-3.7-12.9-5-16.6-3l-40.2,22
		c-3.7,2-2.3,6.7,3.1,10.4l14.1,9.6C198.2,388.3,205.7,389.7,209.4,387.6z"/>
	<path class="st8" d="M211.4,393.3l35.5-19.5c3.8-2.1,6-6.4,6-6.4c1.5-3.2-1.8-5.6-5.6-3.5l-37.4,20.9c-3.8,2.1-5.3,4.3-4.7,7
		C205.2,391.8,206.6,395.6,211.4,393.3z"/>
	<path class="st5" d="M176.1,374.9l27.6,17.8c4.5,2.9,8,1.7,7.8-2.7l-0.1-4.2c-0.2-4.4-3.9-10.3-8.4-13.2l-27.6-17.8
		c-4.5-2.9-8-1.7-7.8,2.7l0.1,4.2C167.8,366.1,171.6,372,176.1,374.9z"/>
</g>
<path class="st5" d="M114,395.8l29,23.5c4.8,3.1,8.4,0.2,8.6-4.9l0.8-8.3c0.1-5.1-3.7-11.7-8.4-14.8l-29.4-18.9
	c-4.8-3.1-8.7-1.4-8.9,3.7l-0.1,4.9C105.4,386.1,109.2,392.8,114,395.8z"/>
<path class="st4" d="M57.2,467.4L57.2,467.4c-1-0.2-1.6-1.1-1.4-2l8.2-47.8c0.2-1,1.1-1.6,2-1.4l0,0c1,0.2,1.6,1.1,1.4,2l-8.2,47.8
	C59,466.9,58.1,467.5,57.2,467.4z"/>
<path class="st5" d="M115.1,393.6l-14-39.8c-2.3-6.6-9.1-9.5-14.6-6.5l-22.3,12.2c-4,2.2-6.3,7-5.8,12.1l4.6,46.3L115.1,393.6z"/>
<path class="st4" d="M102.6,441.3l42.8-23.4c4-2.2,2.5-7.2-3.3-11.1l-15-10.2c-5.8-3.9-13.7-5.4-17.7-3.2l-42.8,23.4
	c-4,2.2-2.5,7.2,3.3,11.1l15,10.2C90.7,442,98.6,443.5,102.6,441.3z"/>
<path class="st5" d="M71.7,429.9l29.4,18.9c4.8,3.1,8.5,1.8,8.4-2.9l-0.2-4.5c-0.2-4.7-4.2-11-8.9-14l-29.4-18.9
	c-4.8-3.1-8.5-1.8-8.4,2.9l0.2,4.5C62.9,420.6,66.9,426.9,71.7,429.9z"/>
<path class="st9" d="M224.6,341.1c17.3,10,29.8,15.1,28.5,23.3c0,0-8.2-5.4-14.6-1.3c-6.3,4.1-5.2,6.9-5.6,9.3
	c-1.2,6.4-1.2,8.6-3,7.3c-6.4-4.4-30-4.5-31.2-19.3c-0.9-12.5,0.7-14,0.7-14S215.9,353.5,224.6,341.1z"/>
<path class="st10" d="M225,310.3l2.3,8.9c0,0-2.2,22.6-2.7,25c0,0-9.1,14-25.6,2.1l-5.5-27.6L225,310.3z"/>
<path class="st11" d="M125.5,370.3l6.8,19.6c0.6,2.3,1.7,5.8,2.6,9.8c1.4,6.3,0.1,13.3-3.4,18.4c0,0-2.6-9.7-4.8-14.2
	c-3.9-7.9-7.3-17.2-7.3-17.5C119.4,385.9,125.5,370.3,125.5,370.3z"/>
<path class="st12" d="M116.7,357.3l13.9,20.2c-1.2,6.8-4.5,10.5-9,12.7l-5.9-25.8L116.7,357.3z"/>
<path class="st13" d="M127.6,375.2c0,0-1.5,6-12.3,10.6"/>
<path class="st12" d="M124.3,407.8c-2.7-10.3-2.8-16.6-2.2-31.1c-1.5-19.9-8.2-26.8-20.3-21.3l-5.1,1.8
	c-14.5,9.3-22.2,9.5-18.2,25.3l5.4,34.9C85.2,435.3,126.9,428.9,124.3,407.8z"/>
<path class="st14" d="M103.8,355.4c0,0-1.8,2-2.8,2.3c-1,0.3-12.4-7.6-9.3-17.6c2-6.4,14-2.4,14-2.4L103.8,355.4z"/>
<path class="st11" d="M100.9,364.2l0.6,0.1c2.1,0.2,3.9-1.3,4.1-3.4l1.1-11.6c0.2-2.1-1.3-3.9-3.4-4.1l-0.6-0.1
	c-2.1-0.2-3.9,1.3-4.1,3.4l-2.7,11C95.7,361.5,98.8,364,100.9,364.2z"/>
<path class="st15" d="M105.9,357c0,0-4.9,0.5-8.5-4c0,0,3.7,6.9,8.2,7.2L105.9,357z"/>
<path class="st11" d="M101.8,351.6c1.6,5.4,5.6,6.9,9,3.4c3.4-3.5,4.9-10.7,3.3-16.1c-1.6-5.4-5.6-6.9-9-3.4
	C101.7,339,100.2,346.2,101.8,351.6z"/>
<path class="st11" d="M96.1,349.9c1.6,5.4,7.3,7.3,10.7,3.8c3.4-3.5,4.9-10.7,3.3-16.1c-1.6-5.4-5.6-6.9-9-3.4
	C97.8,337.8,94.5,344.5,96.1,349.9z"/>
<path class="st14" d="M103.2,337.8c0,0,0.2,10.4-8.1,12c0,0-8.7-6.1-1.1-15.4c6.7-8.2,15.7-0.7,15.7-0.7L103.2,337.8z"/>
<path class="st16" d="M114.5,341.4c0,0-2.4-3.9-8.1-4l3.3-3.7C109.7,333.7,114.2,333.3,114.5,341.4z"/>
<path class="st14" d="M98.4,343.5c2.1-2.4,6.3-1.8,12,1c5.5,0.8,6.8-5.4,6.8-5.4c1.2-3.3-0.9-5-4.2-6.2l-8.5-3.1
	c-4.8-1.8-10,1.9-11.1,5.1l-0.3,0.5C92,338.9,95.2,342.3,98.4,343.5z"/>
<path class="st11" d="M94.6,351.3c0.4,1.3,1.7,2.1,3.1,1.7c1.3-0.4,2.1-1.7,1.7-3.1c-0.4-1.3-1.7-2.1-3.1-1.7
	C95,348.6,94.3,350,94.6,351.3z"/>
<path class="st6" d="M105.9,357c0,0,4.6,5.5-1.1,8.4c-9,4.7-12.7-5.6-11.3-6.3l2.8-1.7c0,0-1.8,3,1.3,5.3c2.3,1.7,6.3,1.8,7.7-1.2
	L105.9,357z"/>
<path class="st11" d="M90.7,379.1l-1.1,30.8c0,1.6,25.7,7.7,25.7,7.7l-1.4,9L87.7,422c-7-2.3-7.2-7.5-7.5-11.8l-1.6-26.5L90.7,379.1
	z"/>
<path class="st12" d="M91.7,382.4l-0.4,22.8c-0.5,1.9-17.7-0.6-17.2-3.5c0.1-0.5-0.3-27.7,6.8-34.5
	C86.6,361.7,92.4,371.8,91.7,382.4z"/>
<path class="st13" d="M90.9,399.1c0,0-6.9,2.4-16-3.3"/>
<g>
	<g>
		<path class="st11" d="M221.5,306.8c0.6,8.9,3.3,15.6,7,23.5c1.2,2.6,2.6,4.9,1.9,7.8c-1,3.9-2.6,7.6-3.3,11.6
			c-0.9,4.4,6.1,4.9,6.9,0.6c1.4-7.2,5.2-12.4,2.3-19.6c-1.5-3.8-3.7-7.3-5.2-11.1c-1.9-4.5-0.9,1.1-1.2-3.7
			C229.5,311.4,221.1,302.4,221.5,306.8L221.5,306.8z"/>
	</g>
</g>
<g>
	<path class="st10" d="M214.8,305.7c2.2,8.3,10.2,17.3,12.7,25.5c1.7,5.7,10.9,4,9.1-1.7c-2.5-8.2-6.6-14.9-8.8-23.2
		c-1.5-5.8-16.5-5.6-15,0.2L214.8,305.7z"/>
</g>
<g>
	<g>
		<path class="st11" d="M188.5,316.7c-1.4,5.8-1.8,11.3-2.2,17.2c-0.3,5.4-2.4,11.5-1.3,16.9c0.7,3.5,3.4,5.2,6.7,5.9
			c5.6,1.2,11.7,0.3,17.4,1.5c4.4,0.9,6.8-4.3,2.4-5.3c-4.9-1-11.9-2.1-16.8-2.8c-2.5-0.3-2.9,0.2-2.9-1.9c-0.2-5,1.4-10.2,1.6-15.2
			c0.2-4.8,0.6-9.2,1.7-13.9C196,314.8,189.5,312.3,188.5,316.7L188.5,316.7z"/>
	</g>
</g>
<path class="st11" d="M230.3,353.7L230.3,353.7c2.2,0.4,4.3-1.1,4.6-3.3l1.5-8.5c0.4-2.2-1.1-4.3-3.3-4.6l0,0c-2.2-0.4-2.6-1-3,1.2
	l-3.1,10.7C226.7,351.2,228.2,353.3,230.3,353.7z"/>
<path class="st11" d="M218.7,359.4L218.7,359.4c0.7-1.6-0.1-3.4-1.7-4.1l-5.5-2.3c-1.6-0.7-3.4,0.1-4.1,1.7l0,0
	c-0.7,1.6,0.1,3.4,1.7,4.1l5.5,2.3C216.2,361.7,218,361,218.7,359.4z"/>
<path class="st0" d="M389.7,427c-23.8-15.9-56.9-39-79.5-54.8c-3.6-2.5-8.4-2.8-12.2-0.7L46.5,509.2c-6.6,3.6-7.5,9.3-1.9,12.7
	l87.9,53.5c5.6,3.4,15.5,3.2,22.2-0.4l42.2-23.1l28.9,17.6l35.6-19.5c4.9-2.7,5-9.6,0.3-12.5l-18.2-11.1l50.5-27.6l36.5,22
	l40.8-22.8c4.9-2.7-19.7-18-24.5-20.9l-6.3-3.8l48.4-26.5C396.5,442.7,397,431.9,389.7,427z"/>
<path class="st4" d="M361.2,461.4L361.2,461.4c1.9-0.1,2.4-1.5,2.3-3.4l-4.7-92.7c-0.1-1.9-2.1-5.3-4-5.1h0
	c-1.9,0.1-7.4,1.4-7.3,3.3l11.2,94.9C358.8,460.3,359.3,461.5,361.2,461.4z"/>
<path class="st4" d="M227.4,473.3l27.2,22.1c4.5,2.9,7.9,0.2,8-4.6l0.7-7.7c0.1-4.8-3.5-11-7.9-13.9l-27.6-17.8
	c-4.5-2.9-8.2-1.3-8.3,3.4l-0.1,4.6C219.3,464.2,222.9,470.5,227.4,473.3z"/>
<path class="st4" d="M208.1,458.1l153.1-83.8c2.4-1.3,2.2-3.7-0.5-5.3l-69.6-42.3c-2.7-1.6-6.8-1.9-9.2-0.6l-153.1,83.8
	c-2.4,1.3-2.2,3.7,0.5,5.3l69.6,42.3C201.6,459.1,205.7,459.4,208.1,458.1z"/>
<path class="st4" d="M46.3,521.4l-0.2,0c-1-0.2-1.7-1.1-1.5-2.1l7.6-63.8c0.2-1,9.4,2.8,9.2,3.8l-13,60.7
	C48.3,520.9,47.3,521.6,46.3,521.4z"/>
<path class="st4" d="M218.2,519.7l45.2-24.7c4.2-2.3,2.6-7.6-3.4-11.7l-15.8-10.8c-6.1-4.1-20.6-12.8-24.8-10.5l-38.7,21.8
	c-4.2,2.3-3,17.6,3.1,21.7l15.8,10.8C205.6,520.5,214,522,218.2,519.7z"/>
<path class="st4" d="M181.7,544.8l-0.1,0c-1-0.2-1.6-1.1-1.4-2l8-46.3c0.2-1,1.1-1.6,2-1.4l0.1,0c1,0.2,1.6,1.1,1.4,2l-8,46.3
	C183.5,544.3,182.6,545,181.7,544.8z"/>
<path class="st4" d="M268.9,549.9L268.9,549.9c1-0.1,1.7-1,1.5-2l-7.1-56.7c-0.1-1-1-1.7-2-1.5l0,0c-1,0.1-1.7,1-1.5,2l7.1,56.7
	C267.1,549.3,267.9,550,268.9,549.9z"/>
<path class="st4" d="M227.3,573L227.3,573c1-0.1,1.8-1.1,1.7-2.1l-8.3-66.2c-0.1-1-1.1-1.8-2.1-1.7l0,0c-1,0.1-1.8,1.1-1.7,2.1
	l8.3,66.2C225.3,572.3,226.2,573.1,227.3,573z"/>
<path class="st5" d="M180.6,504.2l29.3,18.9c4.7,3.1,8.4,1.9,8.1-2.5l-0.3-4.3c-0.3-4.5-4.4-10.6-9.1-13.7l-29.3-18.9
	c-4.7-3.1-8.4-1.9-8.1,2.5l0.3,4.3C171.7,495,175.8,501.2,180.6,504.2z"/>
<path class="st4" d="M124.9,503.6l153.1-83.8c2.4-1.3,2.2-3.7-0.5-5.3l-69.6-42.3c-2.7-1.6-6.8-1.9-9.2-0.6L45.5,455.4
	c-2.4,1.3-2.2,3.7,0.5,5.3l69.6,42.3C118.3,504.7,122.5,504.9,124.9,503.6z"/>
<path class="st4" d="M140,579.3L140,579.3c1.9-0.1,2.4-1.5,2.3-3.4l-4.7-92.7c-0.1-1.9-2.1-5.3-4-5.1h0c-1.9,0.1-7.4,1.4-7.3,3.3
	l11.2,94.9C137.6,578.1,138.1,579.4,140,579.3z"/>
<path class="st2" d="M46.5,448.6l153.1-83.8c0,0,0.1,0,0.1,0l83.2-45.5c2.4-1.3,6.5-1,9.2,0.6l69.6,42.3c2.7,1.6,2.9,4,0.5,5.3
	L209,451.3c0,0-0.1,0-0.1,0l-83.2,45.5c-2.4,1.3-6.5,1-9.2-0.6L47,453.9C44.3,452.3,44.1,449.9,46.5,448.6z"/>
<path class="st6" d="M208.9,365.8l0-1l1.3,0.6l0.2-0.6l31.6-17.6c0.4-0.2,1.1-0.2,1.5,0.1l14.3,8.8l0-0.2l2.6,1.2l0,1.1l0,0
	c0,0.1-0.1,0.2-0.2,0.3l-32.8,18.3c-0.4,0.2-1.1,0.2-1.5-0.1l-16.5-10.2C209.1,366.2,208.9,366,208.9,365.8L208.9,365.8z"/>
<path class="st6" d="M227.4,375.6l32.8-18.3c0.4-0.2,0.3-0.6-0.1-0.9l-16.5-10.2c-0.5-0.3-1.1-0.3-1.5-0.1l-32.8,18.3
	c-0.4,0.2-0.3,0.6,0.1,0.9l16.5,10.2C226.3,375.7,227,375.8,227.4,375.6z"/>
<path class="st17" d="M224.5,362.7l7.9-4.4c0.1-0.1,0.1-0.1,0-0.2l-4-2.5c-0.1-0.1-0.3-0.1-0.4,0l-7.9,4.4c-0.1,0.1-0.1,0.1,0,0.2
	l4,2.5C224.3,362.8,224.4,362.8,224.5,362.7z"/>
<path class="st6" d="M227.3,353.4c0.1-0.9,0.7-1.9,1.4-2.3l32.6-17.9c0.3-0.2,0.5-0.2,0.7-0.1l0,0l0,0c0.1,0,0.1,0.1,0.2,0.1
	l1.2,1.2l-1-0.1l-2.3,20.8c-0.1,0.9-0.7,1.9-1.4,2.3l-30.8,16.9l-1,1.1l-0.1,0.3c-0.6,0.1-2.2-1.1-2.2-1.1L227.3,353.4z"/>
<path class="st4" d="M227.3,376.6l32.6-17.9c0.7-0.4,1.4-1.4,1.4-2.3l2.3-21c0.1-0.9-0.4-1.3-1.1-0.9L230,352.3
	c-0.7,0.4-1.4,1.4-1.4,2.3l-2.3,21C226.1,376.6,226.6,377,227.3,376.6z"/>
<path class="st6" d="M244.2,356.9c-0.1,1.1,0.9,1.4,2.3,0.7c1.4-0.8,2.6-2.3,2.7-3.4c0.1-1.1-0.9-1.4-2.3-0.7
	C245.5,354.3,244.3,355.8,244.2,356.9z"/>
<path class="st6" d="M112,423.7l0-1l1.3,0.6l0.2-0.6l31.6-17.6c0.4-0.2,1.1-0.2,1.5,0.1l14.3,8.8l0-0.2l2.6,1.2l0,1.1l0,0
	c0,0.1-0.1,0.2-0.2,0.3l-32.8,18.3c-0.4,0.2-1.1,0.2-1.5-0.1l-16.5-10.2C112.1,424.1,112,423.9,112,423.7L112,423.7z"/>
<path class="st6" d="M130.4,433.5l32.8-18.3c0.4-0.2,0.3-0.6-0.1-0.9l-16.5-10.2c-0.5-0.3-1.1-0.3-1.5-0.1l-32.8,18.3
	c-0.4,0.2-0.3,0.6,0.1,0.9l16.5,10.2C129.4,433.6,130,433.7,130.4,433.5z"/>
<path class="st17" d="M127.6,420.6l7.9-4.4c0.1-0.1,0.1-0.1,0-0.2l-4-2.5c-0.1-0.1-0.3-0.1-0.4,0l-7.9,4.4c-0.1,0.1-0.1,0.1,0,0.2
	l4,2.5C127.3,420.7,127.5,420.7,127.6,420.6z"/>
<path class="st6" d="M130.3,411.3c0.1-0.9,0.7-1.9,1.4-2.3l32.6-17.9c0.3-0.2,0.5-0.2,0.7-0.1l0,0l0,0c0.1,0,0.1,0.1,0.2,0.1
	l1.2,1.2l-1-0.1l-2.3,20.8c-0.1,0.9-0.7,1.9-1.4,2.3l-30.8,16.9l-1,1.1l-0.1,0.3c-0.6,0.1-2.2-1.1-2.2-1.1L130.3,411.3z"/>
<path class="st4" d="M130.4,434.5l32.6-17.9c0.7-0.4,1.4-1.4,1.4-2.3l2.3-21c0.1-0.9-0.4-1.3-1.1-0.9L133,410.2
	c-0.7,0.4-1.4,1.4-1.4,2.3l-2.3,21C129.2,434.5,129.7,434.9,130.4,434.5z"/>
<path class="st6" d="M147.3,414.8c-0.1,1.1,0.9,1.4,2.3,0.7c1.4-0.8,2.6-2.3,2.7-3.4c0.1-1.1-0.9-1.4-2.3-0.7
	C148.6,412.2,147.4,413.7,147.3,414.8z"/>
<path class="st10" d="M193.2,322.7c-0.7-0.5-3.4,0-3.4,0c-0.1-4.5-2.2-7.2,2.5-12.9c0.9-1.1,16.6-7,24.7-7.8
	c3.9-0.4,9.1,0.3,10.3,4.1c0.7,2.2-0.2,8.2-0.2,8.2c-0.3,8.2-3-2.8-4,1.6c0-0.1,0.1-0.2,0.1-0.3c0,0-1.6,7.6-2.9,13.4
	c-0.8,3.7-1.3,6.3-1.4,6.7c0,0,0,0,0,0l-14.8,9.8l-6.2-13.8l0,0L193.2,322.7z"/>
<path class="st10" d="M225.1,310.5c0,0,6,4.9,5.7,12.8s-7.2,12.3-7.2,12.3C220.8,325.3,220,316.1,225.1,310.5z"/>
<g>
	<path class="st10" d="M190,312.4c-5.2,10.6-5,21.1-5.6,32.5c-0.3,6,8.9,6.8,9.3,0.8c0.6-10.7,0.3-20.3,5.1-30.1
		C201.4,310.2,192.6,307,190,312.4L190,312.4z"/>
</g>
<path class="st6" d="M197.7,307.2c0,0,14.4,14,19.2,20.9c0.6,0.9,1.9,0.6,2.2-0.4c1.2-5.6,3.2-17.8-0.6-25.8
	C218.5,301.9,207.9,300.9,197.7,307.2z"/>
<path class="st11" d="M216.9,302c0,0,6.1,8.1-0.5,13.4c-6.6,5.4-15.4-9.3-15.4-9.3C206.8,302.6,211.7,302.2,216.9,302z"/>
<path class="st11" d="M209.3,310.4L209.3,310.4c2,0.3,3.9-1.1,4.2-3.1L215,297c0.3-2-1.1-3.9-3.1-4.2l0,0c-2-0.3-3.9,1.1-4.2,3.1
	l-1.5,10.3C205.9,308.3,207.3,310.2,209.3,310.4z"/>
<path class="st15" d="M214.7,302.7c0,0-4.4,0.7-7.7-1.9c0,0,2.6,4,6.9,5L214.7,302.7z"/>
<path class="st18" d="M211.3,282.3c-0.1,3.9-3.3,7-7.2,6.9c-3.9-0.1-7-3.3-6.9-7.2s3.3-7,7.2-6.9
	C208.3,275.2,211.3,278.4,211.3,282.3z"/>
<path class="st18" d="M220,281.7c0,0-7.4-6.3-14.8-4.4c-3,0.8-5.8,4.1-8,7.7c-3.3,5.4-1.1,12.5,4.6,15.4l4.7,2.3L220,281.7z"/>
<path class="st11" d="M205.3,297.2c-0.3,5,6.1,7.4,10.6,5.1c4.5-2.3,5.3-8.3,5.6-13.3c0.3-5-6.4-7.1-10.8-4.9
	C206.2,286.4,205.6,292.3,205.3,297.2z"/>
<path class="st18" d="M215.9,285.2c0,0,4.6,0.9,5.6,5.4c2.4-3.3,0-13.9-9.1-8.1L215.9,285.2z"/>
<path class="st18" d="M204.8,294.4c0,0,6.3-0.7,9.6-3.9c3.2-3.2,4.8-5.9,3.2-7C216.1,282.3,204.4,279.5,204.8,294.4z"/>
<path class="st11" d="M203.3,296.2c0.4,1.5,1.7,2.4,2.9,2.1c1.2-0.3,1.8-1.7,1.5-3.2c-0.4-1.5-1.7-2.4-2.9-2.1
	C203.5,293.3,202.9,294.7,203.3,296.2z"/>
<path class="st9" d="M197.5,284.3c-0.4-0.9,2.9-9.9,12.4-7.3C205.3,278.4,201.1,280.8,197.5,284.3z"/>
<g>
	<path class="st0" d="M691.1,595L440.7,432.5c-4.5-2.6-4.5-9,0-11.6L632,310.5l273.7,157.9c9.6,5.5,9.6,19.4,0,24.9l-167.9,97.3
		C730.8,594.6,698.1,599,691.1,595z"/>
	<path class="st19" d="M663.9,589.8l-266-156c-3-1.8-4.9-5-4.9-8.5l0-14.4l195.2-97.3l296,150.5v7.9c0,7.7-4.1,14.7-10.7,18.6
		l-171.4,99.3C690.3,596.7,675.7,596.7,663.9,589.8z"/>
	<path class="st20" d="M885.1,464.5l-1.7,1L599.9,291.3l60.2-219.2l2.8-1.6c4-2.2,8.9-2.2,12.8,0.1l277.4,160.2
		c5.2,3,7.7,9.3,5.9,15.1L895.2,452C893.5,457.3,889.9,461.8,885.1,464.5z"/>
	<path class="st5" d="M884.2,464.1L588.1,293.2l65.9-215c1.5-4.9,7.2-7.2,11.7-4.6l281.8,162.7c3.2,1.9,4.7,5.7,3.7,9.3L884.2,464.1
		z"/>
	<polygon class="st21" points="874.5,430.4 606.9,275.9 666.7,90 934.2,244.4 	"/>
	<path class="st2" d="M671.6,574.1L396.3,415.7c-4.5-2.6-4.5-9,0-11.6l191.9-110.8l296,170.8l-189.9,110
		C687.3,578.2,678.6,578.2,671.6,574.1z"/>
	<g class="st22">
		<g>
			<g>
				<path class="st20" d="M596.7,348.8c-0.6,0.3-1.6,0.3-2.2,0l-15.6-9c-0.6-0.3-0.5-0.9,0.1-1.2l17.4-9.1c0.6-0.3,1.6-0.3,2.2,0
					l15.6,9c0.6,0.3,0.5,0.9-0.1,1.2L596.7,348.8z"/>
				<path class="st20" d="M605.2,380.1c-0.6,0.3-1.6,0.3-2.2,0l-15.6-9c-0.6-0.3-0.5-0.9,0.1-1.2l17.4-9.1c0.6-0.3,1.6-0.3,2.1,0
					l15.6,9c0.6,0.3,0.5,0.9-0.1,1.2L605.2,380.1z"/>
				<path class="st20" d="M586.3,395.6c-0.6,0.3-1.6,0.3-2.2,0l-15.7-9c-0.6-0.3-0.5-0.9,0.1-1.2l17.4-9.1c0.6-0.3,1.6-0.3,2.2,0
					l15.7,9c0.6,0.3,0.5,0.9-0.1,1.2L586.3,395.6z"/>
				<path class="st20" d="M551.8,402.1c-0.6,0.3-1.6,0.3-2.2,0l-15.7-9c-0.6-0.3-0.5-0.9,0.1-1.2l17.4-9.1c0.6-0.3,1.6-0.3,2.2,0
					l15.7,9c0.6,0.3,0.5,0.9-0.1,1.2L551.8,402.1z"/>
				<path class="st20" d="M497.8,400.7c-0.6,0.3-1.6,0.3-2.2,0l-15.6-9c-0.6-0.3-0.5-0.9,0.1-1.2l20.4-10.7c0.6-0.3,1.6-0.3,2.2,0
					l15.6,9c0.6,0.3,0.5,0.9-0.1,1.2L497.8,400.7z"/>
				<path class="st20" d="M524.8,416.3c-0.6,0.3-1.7,0.3-2.5-0.2l-20.5-11.8c-0.7-0.4-0.8-1-0.2-1.4l20.4-10.7
					c0.6-0.3,1.7-0.2,2.5,0.2l20.5,11.8c0.7,0.4,0.8,1,0.2,1.4L524.8,416.3z"/>
				<path class="st20" d="M659.4,494.2c-0.5,0.3-1.4,0.2-2-0.1l-15.6-9c-0.6-0.3-0.6-0.8-0.1-1.1l7.6-4c0.5-0.3,1.4-0.2,2,0.1
					l15.6,9c0.6,0.3,0.6,0.8,0.1,1.1L659.4,494.2z"/>
				<path class="st20" d="M680.1,506.7c-0.5,0.3-1.4,0.2-2-0.1l-15.6-9c-0.6-0.3-0.6-0.8-0.1-1.1l7.6-4c0.5-0.3,1.4-0.2,2,0.1
					l15.6,9c0.6,0.3,0.6,0.8,0.1,1.1L680.1,506.7z"/>
				<path class="st20" d="M702.5,519.1c-0.5,0.3-1.4,0.2-1.9-0.1l-15.6-9c-0.6-0.3-0.6-0.8-0.1-1.1l7.3-3.8c0.5-0.3,1.4-0.2,1.9,0.1
					l15.6,9c0.6,0.3,0.6,0.8,0.1,1.1L702.5,519.1z"/>
				<path class="st20" d="M694.4,499.3c-0.5,0.3-1.4,0.2-1.9-0.1l-15.6-9c-0.6-0.3-0.6-0.8-0.1-1.1l7.3-3.8c0.5-0.3,1.4-0.2,1.9,0.1
					l15.6,9c0.6,0.3,0.6,0.8,0.1,1.1L694.4,499.3z"/>
				<path class="st20" d="M632.4,478.4c-0.6,0.3-1.6,0.3-2.2,0l-101.8-58.8c-0.6-0.3-0.5-0.9,0.1-1.2l20.4-10.7
					c0.6-0.3,1.6-0.3,2.2,0L653,466.5c0.6,0.3,0.5,0.9-0.1,1.2L632.4,478.4z"/>
				<path class="st20" d="M523.3,411.8c0,0-0.1,0-0.2,0l-12-6.9c-0.1,0-0.1-0.1,0-0.1l1.3-0.7c0,0,0.1,0,0.2,0l12,6.9
					c0.1,0,0.1,0.1,0.1,0.1L523.3,411.8z"/>
				<path class="st20" d="M493.4,392.4c0,0-0.1,0-0.1,0l-5.1-2.9c0,0,0,0,0-0.1l1.3-0.7c0,0,0.1,0,0.1,0l5.1,2.9c0,0,0,0,0,0.1
					L493.4,392.4z"/>
				<path class="st20" d="M573.2,414.5c-0.6,0.3-1.6,0.3-2.2,0l-15.6-9c-0.6-0.3-0.5-0.9,0.1-1.2l17.4-9.1c0.6-0.3,1.6-0.3,2.2,0
					l15.6,9c0.6,0.3,0.5,0.9-0.1,1.2L573.2,414.5z"/>
				<path class="st20" d="M594.8,426.9c-0.6,0.3-1.6,0.3-2.2,0l-15.6-9c-0.6-0.3-0.5-0.9,0.1-1.2l17.4-9.1c0.6-0.3,1.6-0.3,2.2,0
					l15.6,9c0.6,0.3,0.5,0.9-0.1,1.2L594.8,426.9z"/>
				<path class="st20" d="M616.3,439.4c-0.6,0.3-1.6,0.3-2.2,0l-15.7-9c-0.6-0.3-0.5-0.9,0.1-1.2l17.4-9.1c0.6-0.3,1.6-0.3,2.2,0
					l15.7,9c0.6,0.3,0.5,0.9-0.1,1.2L616.3,439.4z"/>
				<path class="st20" d="M637.9,451.8c-0.6,0.3-1.6,0.3-2.2,0l-15.7-9c-0.6-0.3-0.5-0.9,0.1-1.2l17.4-9.1c0.6-0.3,1.6-0.3,2.2,0
					l15.7,9c0.6,0.3,0.5,0.9-0.1,1.2L637.9,451.8z"/>
				<path class="st20" d="M659.4,464.2c-0.6,0.3-1.6,0.3-2.2,0l-15.6-9c-0.6-0.3-0.5-0.9,0.1-1.2l17.4-9.1c0.6-0.3,1.6-0.3,2.2,0
					l15.6,9c0.6,0.3,0.5,0.9-0.1,1.2L659.4,464.2z"/>
				<path class="st20" d="M681,476.7c-0.6,0.3-1.6,0.3-2.2,0l-15.6-9c-0.6-0.3-0.5-0.9,0.1-1.2l17.4-9.1c0.6-0.3,1.6-0.3,2.2,0
					l15.6,9c0.6,0.3,0.5,0.9-0.1,1.2L681,476.7z"/>
				<path class="st20" d="M729.5,504.7c-0.6,0.3-1.6,0.3-2.2,0l-42.6-24.6c-0.6-0.3-0.5-0.9,0.1-1.2l17.4-9.1c0.6-0.3,1.6-0.3,2.2,0
					l42.6,24.6c0.6,0.3,0.5,0.9-0.1,1.2L729.5,504.7z"/>
				<path class="st20" d="M607.8,408c-0.6,0.3-1.6,0.3-2.1,0l-15.7-9c-0.6-0.3-0.5-0.9,0.1-1.2l17.4-9.1c0.6-0.3,1.6-0.3,2.1,0
					l15.7,9c0.6,0.3,0.5,0.9-0.1,1.2L607.8,408z"/>
				<path class="st20" d="M629.3,420.4c-0.6,0.3-1.6,0.3-2.2,0l-15.7-9c-0.6-0.3-0.5-0.8,0.1-1.2l17.4-9.1c0.6-0.3,1.6-0.3,2.1,0
					l15.7,9c0.6,0.3,0.5,0.9-0.1,1.2L629.3,420.4z"/>
				<path class="st20" d="M650.9,432.9c-0.6,0.3-1.6,0.3-2.2,0l-15.6-9c-0.6-0.3-0.5-0.9,0.1-1.2l17.4-9.1c0.6-0.3,1.6-0.3,2.2,0
					l15.6,9c0.6,0.3,0.5,0.9-0.1,1.2L650.9,432.9z"/>
				<path class="st20" d="M672.4,445.3c-0.6,0.3-1.6,0.3-2.2,0l-15.6-9c-0.6-0.3-0.5-0.9,0.1-1.2l17.4-9.1c0.6-0.3,1.6-0.3,2.2,0
					l15.6,9c0.6,0.3,0.5,0.9-0.1,1.2L672.4,445.3z"/>
				<path class="st20" d="M694,457.7c-0.6,0.3-1.6,0.3-2.2,0l-15.7-9c-0.6-0.3-0.5-0.9,0.1-1.2l17.4-9.1c0.6-0.3,1.6-0.3,2.1,0
					l15.7,9c0.6,0.3,0.5,0.9-0.1,1.2L694,457.7z"/>
				<path class="st20" d="M715.5,470.2c-0.6,0.3-1.6,0.3-2.2,0l-15.6-9c-0.6-0.3-0.5-0.9,0.1-1.2l17.4-9.1c0.6-0.3,1.6-0.3,2.2,0
					l15.6,9c0.6,0.3,0.5,0.9-0.1,1.2L715.5,470.2z"/>
				<path class="st20" d="M737.1,482.6c-0.6,0.3-1.6,0.3-2.2,0l-15.7-9c-0.6-0.3-0.5-0.8,0.1-1.2l17.4-9.1c0.6-0.3,1.6-0.3,2.1,0
					l15.7,9c0.6,0.3,0.5,0.9-0.1,1.2L737.1,482.6z"/>
				<path class="st20" d="M626.6,392.5c-0.6,0.3-1.6,0.3-2.2,0l-15.6-9c-0.6-0.3-0.5-0.9,0.1-1.2l17.4-9.1c0.6-0.3,1.6-0.3,2.1,0
					l15.6,9c0.6,0.3,0.5,0.9-0.1,1.2L626.6,392.5z"/>
				<path class="st20" d="M648.2,404.9c-0.6,0.3-1.6,0.3-2.2,0l-15.6-9c-0.6-0.3-0.5-0.9,0.1-1.2l17.4-9.1c0.6-0.3,1.6-0.3,2.2,0
					l15.6,9c0.6,0.3,0.5,0.9-0.1,1.2L648.2,404.9z"/>
				<path class="st20" d="M669.7,417.3c-0.6,0.3-1.6,0.3-2.2,0l-15.6-9c-0.6-0.3-0.5-0.9,0.1-1.2l17.4-9.1c0.6-0.3,1.6-0.3,2.1,0
					l15.6,9c0.6,0.3,0.5,0.9-0.1,1.2L669.7,417.3z"/>
				<path class="st20" d="M691.3,429.8c-0.6,0.3-1.6,0.3-2.2,0l-15.7-9c-0.6-0.3-0.5-0.9,0.1-1.2l17.4-9.1c0.6-0.3,1.6-0.3,2.2,0
					l15.7,9c0.6,0.3,0.5,0.9-0.1,1.2L691.3,429.8z"/>
				<path class="st20" d="M712.8,442.2c-0.6,0.3-1.6,0.3-2.2,0l-15.7-9c-0.6-0.3-0.5-0.9,0.1-1.2l17.4-9.1c0.6-0.3,1.6-0.3,2.2,0
					l15.7,9c0.6,0.3,0.5,0.9-0.1,1.2L712.8,442.2z"/>
				<path class="st20" d="M734.4,454.6c-0.6,0.3-1.6,0.3-2.2,0l-15.6-9c-0.6-0.3-0.5-0.9,0.1-1.2l17.4-9.1c0.6-0.3,1.6-0.3,2.1,0
					l15.6,9c0.6,0.3,0.5,0.9-0.1,1.2L734.4,454.6z"/>
				<path class="st20" d="M755.9,467.1c-0.6,0.3-1.6,0.3-2.2,0l-15.7-9c-0.6-0.3-0.5-0.9,0.1-1.2l17.4-9.1c0.6-0.3,1.6-0.3,2.2,0
					l15.7,9c0.6,0.3,0.5,0.9-0.1,1.2L755.9,467.1z"/>
				<path class="st20" d="M583.6,367.7c-0.6,0.3-1.6,0.3-2.2,0l-26.5-15.3c-0.6-0.3-0.5-0.9,0.1-1.2l17.4-9.1c0.6-0.3,1.6-0.3,2.2,0
					l26.5,15.3c0.6,0.3,0.5,0.9-0.1,1.2L583.6,367.7z"/>
				<path class="st20" d="M801.5,466.9c-0.6,0.3-1.6,0.3-2.2,0l-26.5-15.3c-0.6-0.3-0.5-0.9,0.1-1.2l17.4-9.1c0.6-0.3,1.6-0.3,2.2,0
					l26.5,15.3c0.6,0.3,0.5,0.9-0.1,1.2L801.5,466.9z"/>
				<path class="st20" d="M564.7,383.2c-0.6,0.3-1.6,0.3-2.2,0L531,364.9c-0.6-0.3-0.5-0.9,0.1-1.2l17.4-9.1c0.6-0.3,1.6-0.3,2.2,0
					l31.6,18.3c0.6,0.3,0.5,0.9-0.1,1.2L564.7,383.2z"/>
				<path class="st20" d="M530.2,389.7c-0.6,0.3-1.6,0.3-2.2,0L507,377.5c-0.6-0.3-0.5-0.9,0.1-1.2l17.4-9.1c0.6-0.3,1.6-0.3,2.2,0
					l21.1,12.2c0.6,0.3,0.5,0.9-0.1,1.2L530.2,389.7z"/>
				<path class="st20" d="M618.3,361.2c-0.6,0.3-1.6,0.3-2.2,0l-15.6-9c-0.6-0.3-0.5-0.9,0.1-1.2l17.4-9.1c0.6-0.3,1.6-0.3,2.2,0
					l15.6,9c0.6,0.3,0.5,0.9-0.1,1.2L618.3,361.2z"/>
				<path class="st20" d="M639.7,373.6c-0.6,0.3-1.6,0.3-2.2,0l-15.6-9c-0.6-0.3-0.5-0.9,0.1-1.2l17.4-9.1c0.6-0.3,1.6-0.3,2.2,0
					l15.6,9c0.6,0.3,0.5,0.9-0.1,1.2L639.7,373.6z"/>
				<path class="st20" d="M661.3,386c-0.6,0.3-1.6,0.3-2.2,0l-15.6-9c-0.6-0.3-0.5-0.9,0.1-1.2l17.4-9.1c0.6-0.3,1.6-0.3,2.2,0
					l15.6,9c0.6,0.3,0.5,0.9-0.1,1.2L661.3,386z"/>
				<path class="st20" d="M682.8,398.5c-0.6,0.3-1.6,0.3-2.2,0l-15.6-9c-0.6-0.3-0.5-0.9,0.1-1.2l17.4-9.1c0.6-0.3,1.6-0.3,2.2,0
					l15.6,9c0.6,0.3,0.5,0.9-0.1,1.2L682.8,398.5z"/>
				<path class="st20" d="M704.4,410.9c-0.6,0.3-1.6,0.3-2.2,0l-15.6-9c-0.6-0.3-0.5-0.9,0.1-1.2l17.4-9.1c0.6-0.3,1.6-0.3,2.2,0
					l15.6,9c0.6,0.3,0.5,0.9-0.1,1.2L704.4,410.9z"/>
				<path class="st20" d="M725.9,423.3c-0.6,0.3-1.6,0.3-2.2,0l-15.7-9c-0.6-0.3-0.5-0.9,0.1-1.2l17.4-9.1c0.6-0.3,1.6-0.3,2.2,0
					l15.7,9c0.6,0.3,0.5,0.9-0.1,1.2L725.9,423.3z"/>
				<path class="st20" d="M747.5,435.8c-0.6,0.3-1.6,0.3-2.2,0l-15.6-9c-0.6-0.3-0.5-0.9,0.1-1.2l17.4-9.1c0.6-0.3,1.6-0.3,2.2,0
					l15.6,9c0.6,0.3,0.5,0.9-0.1,1.2L747.5,435.8z"/>
				<path class="st20" d="M769,448.2c-0.6,0.3-1.6,0.3-2.2,0l-15.7-9c-0.6-0.3-0.5-0.9,0.1-1.2l17.4-9.1c0.6-0.3,1.6-0.3,2.2,0
					l15.7,9c0.6,0.3,0.5,0.9-0.1,1.2L769,448.2z"/>
				<path class="st20" d="M779.3,460.1c-0.3-0.1-0.6-0.2-1.1-0.2c-0.4,0-0.8,0.1-1.1,0.2l-17.4,9.1c-0.3,0.2-0.5,0.4-0.5,0.6
					c0,0.2,0.1,0.4,0.4,0.6l4.1,2.4l-22.8,12c-0.3,0.2-0.5,0.4-0.5,0.6c0,0.2,0.1,0.4,0.4,0.6l10.5,6.1c0.3,0.2,0.6,0.2,1.1,0.2
					c0.4,0,0.8-0.1,1.1-0.2l41.4-21.7c0.3-0.2,0.5-0.4,0.5-0.6c0-0.2-0.1-0.4-0.4-0.6L779.3,460.1z"/>
				<path class="st20" d="M529.5,383.7c0,0-0.1,0-0.2,0l-12-6.9c-0.1,0-0.1-0.1,0-0.1l1.3-0.7c0,0,0.1,0,0.2,0l12,6.9
					c0.1,0,0.1,0.1,0.1,0.1L529.5,383.7z"/>
			</g>
		</g>
	</g>
</g>
<g>
	<path class="st0" d="M533.8,86.8c7.6,4.6,12.7,13.8,13.4,22.9l10.9-6c-2.9-12.2-10.5-23.6-20.8-29.8c-10.4-6.2-21.1-5.8-28.8-0.1
		l5,15.7C518.2,83.5,526.1,82.2,533.8,86.8z"/>
	<path class="st0" d="M499.7,46.5l4.8,14.8c10-6,23.1-5.9,35.8,1.7c12.7,7.6,22.1,21.1,26.6,35.8l10.3-5.7c-0.6-1.8-1.3-3.6-2.1-5.4
		c-6.5-15.6-17.4-29.3-31.3-37.7C528.3,40.7,512.3,40,499.7,46.5z"/>
	<path class="st0" d="M520.5,111.2c0.1,0.2,0.2,0.4,0.3,0.6c0.2,0.3,0.4,0.7,0.6,1c0.2,0.3,0.4,0.6,0.6,0.8c0.2,0.3,0.4,0.5,0.6,0.7
		c0.3,0.3,0.6,0.6,0.9,0.9c0.2,0.2,0.3,0.3,0.5,0.5c0.5,0.4,1,0.8,1.6,1.2c0.6,0.3,1.1,0.6,1.7,0.8c0.2,0.1,0.4,0.1,0.6,0.2
		c0.4,0.1,0.7,0.2,1.1,0.2c0.3,0,0.5,0.1,0.8,0.1c0.3,0,0.5,0,0.8,0c0.3,0,0.6,0,0.9-0.1c0.2,0,0.3-0.1,0.5-0.1
		c1.7-0.4,3.2-1.5,4.2-3.2c0,0,0,0,0,0l0,0c0.2-0.3,0.4-0.6,0.5-1c0.2-0.5,0.4-0.9,0.6-1.5c0.2-0.7,0.3-1.4,0.4-2.1
		c0.4-5-2.3-10.6-6.6-13.2c-4.3-2.6-8.9-1.4-10.9,2.7c-0.3,0.6-0.5,1.2-0.7,1.9c-0.1,0.5-0.2,1.1-0.3,1.6c0,0.4-0.1,0.8-0.1,1.3l0,0
		c0,0,0,0,0,0c0,0.9,0.1,1.8,0.2,2.7C519.5,108.5,519.9,109.9,520.5,111.2z"/>
</g>
<g>
	<g>
		<g>
			<path class="st0" d="M443.7,511c-6-3.5-9.2-13.2-16.2-9.2l-182.5,105c-3.6,2.1-5.6,4.7-5.7,7.3l0,0l0,0.4c0,0.1,0,0.2,0,0.4
				l0.3,9.3l0,0c-0.9,2.8,0.3,5.7,3.7,7.7L344,690.1c3,1.7,7.2,2.5,11.4,2.3c1.1,0,2.1-0.1,3.2-0.3c2.1-0.3,4.2-0.9,6.2-1.6
				c1-0.4,1.9-0.8,2.8-1.3l177.7-105c6.1-3.6,6-12.4-0.2-15.9L443.7,511z"/>
			<g>
				<path class="st19" d="M540,559.8l-97.8-56.7c-5.9-3.4-16.1-3-22.9,0.9l-177,101.8l-6-3.9l0.3,9.8c0,0,0,0,0,0
					c-0.9,2.8,0.3,5.6,3.6,7.5l97.8,56.7c5.9,3.4,16.1,3,22.9-0.9l177.4-102C545.1,569.1,545.8,563.2,540,559.8z"/>
				<path class="st23" d="M543.9,565.1l0-10.9l-12.5,0.5l-89.2-51.7c-5.9-3.4-16.1-3-22.9,0.9l-70.5,117.6l0.4,56.6
					c4.1-0.2,8.4-1.2,11.8-3.2l177.4-102c3.6-2.1,5.5-4.7,5.6-7.2l0,0v0C543.9,565.5,543.9,565.3,543.9,565.1z"/>
				<path class="st5" d="M332.8,666.8c0,1.7-1.2,2.4-2.7,1.5c-1.5-0.9-2.7-2.9-2.7-4.6c0-1.7,1.2-2.4,2.7-1.5
					C331.6,663,332.8,665.1,332.8,666.8z"/>
				<path class="st5" d="M338.1,664.7l-97.8-56.7c-5.9-3.4-5.1-9.3,1.7-13.2l177.4-102c6.8-3.9,17-4.3,22.9-0.9l97.8,56.7
					c5.9,3.4,5.1,9.3-1.7,13.2L361,663.8C354.2,667.7,344,668.1,338.1,664.7z"/>
				<path class="st5" d="M297.9,649.1l-21.7-12.6c-0.9-0.5-1.7-2-1.7-3.2l0,0c0-1.2,0.8-1.8,1.7-1.3l21.7,12.6
					c0.9,0.5,1.7,2,1.7,3.2l0,0C299.6,649.1,298.9,649.6,297.9,649.1z"/>
				<path class="st5" d="M513.1,583.6l10.7-6.2c0.6-0.4,1.2-1.4,1.2-2.2l0,0c0-0.8-0.5-1.2-1.2-0.9l-10.7,6.2
					c-0.6,0.4-1.2,1.4-1.2,2.2l0,0C511.9,583.5,512.4,583.9,513.1,583.6z"/>
				<path class="st5" d="M497.9,593.1l10.7-6.2c0.6-0.4,1.2-1.4,1.2-2.2l0,0c0-0.8-0.5-1.2-1.2-0.9l-10.7,6.2
					c-0.6,0.4-1.2,1.4-1.2,2.2l0,0C496.7,593,497.2,593.4,497.9,593.1z"/>
				<path class="st2" d="M424.8,498.7l-149.1,85.8c-3.5,2-3.5,7,0,9l90.4,52.4c1.6,0.9,3.6,0.9,5.2,0l149.1-85.8c3.5-2,3.5-7,0-9
					L430,498.7C428.4,497.8,426.5,497.8,424.8,498.7z"/>
			</g>
		</g>
	</g>
	<g>
		<path class="st24" d="M457.9,548.5c-20.7-12.4-54.6-13-75.7-1.3c-21.1,11.7-21.4,31.3-0.7,43.7c20.7,12.4,54.2,13,75.7,1.5
			C480.8,579.8,478.6,560.9,457.9,548.5z"/>
		<path class="st20" d="M440.8,545.8c-19.7-11.8-51.8-12.3-71.9-1.2c-6.7,3.7-13.6,1.3-15.9,6.1c0,0,0.5,13,0.7,16
			c0.6,7,5.4,13.9,14.5,19.3c19.7,11.8,51.5,12.3,71.9,1.4c11-5.9,16.1-13.2,16.1-20.5c0-2.7-0.7-14.1-0.7-14.1
			C453.2,548.1,447.4,549.7,440.8,545.8z"/>
		<path class="st21" d="M440.2,533.5c-19.7-11.8-51.8-12.3-71.9-1.2c-20,11.1-20.3,29.7-0.7,41.5c19.7,11.8,51.5,12.3,71.9,1.4
			C461.9,563.3,459.8,545.3,440.2,533.5z"/>
		<polyline class="st25" points="391.6,541.6 385.7,561.7 432.9,551 		"/>
	</g>
</g>
<g>
	<g>
		<g>
			<g>
				<g>
					<path class="st11" d="M568.7,488.4c-5.4,8.9-7.3,15.2-9.1,25.3c-0.4,2.2-0.5,3.5,0.1,5.6c2.2,7,4.4,7.2,5.5,14.6
						c0.6,3.7,5.1,1.7,4.6-2c-1-6.8-1.1-5.4-3.6-11.9c-0.5-1.2-1-2.4-1.5-3.6c0.5,1.1-0.1,1.9,0.1,0.9c0.1-0.6,0.2-1.3,0.3-1.9
						c1.8-9.8,3.7-20.6,8.9-29.2c2-3.3-3.2-6-5.2-2.8L568.7,488.4z"/>
				</g>
			</g>
		</g>
		<path class="st6" d="M567.4,485.8c-3.6,6.9-6,18.5-8.2,27.9c-0.9,2.6-0.2,4.9,1.5,4.7l5.4,0.5c1.3-0.1,3.8-3.1,4.3-5.3l5.9-23.9
			c1-3.9,0-7.1-2.2-7.6l5.1-4C578.8,476.8,569.4,478.7,567.4,485.8z"/>
		<path class="st9" d="M587.3,528l-26.5,16.8c-1.3,0.8-3-0.1-3.1-1.6l-0.8-18.9c0-0.7,0.3-1.4,0.9-1.8l26.5-16.8
			c1.3-0.8,3,0.1,3.1,1.6l0.8,18.9C588.3,526.9,587.9,527.6,587.3,528z"/>
		<path class="st11" d="M573.1,540.8l-1.9,1c-1.5,0.7-3.3,0.1-4.1-1.3l0,0c-0.7-1.5-0.1-3.3,1.3-4.1l1.9-1c1.5-0.7,3.3-0.1,4.1,1.3
			l0,0C575.2,538.2,574.6,540,573.1,540.8z"/>
	</g>
	<g>
		<g>
			<path class="st26" d="M633.3,490.5l-9.1-5.7c-0.5-0.3-0.8-1.1-0.5-1.8l7-17.8c0.3-0.7,0.9-1,1.5-0.6l9.1,5.5
				c0.5,0.3,0.8,1.1,0.5,1.8l-6.9,17.7c-0.2,0.4-0.4,0.5-0.8,0.7L633.3,490.5z"/>
			<path class="st26" d="M632.8,473.2c0,0-9.4,10.5-9.2,9.9l6.9-18.4l0.8-0.2c0.2-0.1,0.5,0,0.7,0.1l9.1,5.5
				c0.3,0.2,0.5,0.4,0.5,0.8L632.8,473.2z"/>
			<path class="st9" d="M632.4,490.5l-9.1-5.5c-0.5-0.3-0.7-1.1-0.5-1.8l7-17.8c0.3-0.7,0.9-1,1.5-0.6l9,5.5
				c0.5,0.3,0.7,1.1,0.5,1.8l-7,17.8C633.6,490.6,633,490.8,632.4,490.5z"/>
			<path class="st27" d="M633.5,487.6l-8.9-5.4l6.1-15.7l8.9,5.4l-6.2,15.3C633.3,487.3,633.6,487.7,633.5,487.6z"/>
		</g>
		<path class="st11" d="M636.9,492.8L636.9,492.8c-1.6-0.2-2.8-1.7-2.6-3.3l0.8-6.8c0.2-1.6,1.7-2.8,3.3-2.6l0,0
			c1.6,0.2,2.8,1.7,2.6,3.3l-0.8,6.8C640,491.8,638.5,493,636.9,492.8z"/>
	</g>
	<ellipse class="st0" cx="593.3" cy="641" rx="26.4" ry="13.8"/>
	<path class="st9" d="M582.9,632.7l5.9,0.1c4.2-1.2,6.2-2.3,7.8-1l0.5,0.4c1.6,1.3,1.1,3-1.1,3.9l-9.5,5.6c-2.2,0.9-4.8,0.1-6.2-1.5
		c0,0-0.8-1,0.4-4.5C581.2,633.5,581.1,633.4,582.9,632.7z"/>
	<path class="st9" d="M592.2,636.4l6.5,1.6c4.9-0.3,7.4-1,8.8,0.8l0.4,0.5c1.5,1.8,0.5,3.6-2.1,4l-11.9,3.8c-2.6,0.4-5.4-1-6.5-3.2
		c0,0-0.7-1.3,1.5-4.9C590.3,636.9,590.1,636.8,592.2,636.4z"/>
	<path class="st11" d="M575.6,551.3l6.3,81.9c0.4,5.2,6.1,3.3,6.6,0.1l-2.3-75.9L575.6,551.3z"/>
	<path class="st11" d="M590.9,555.5l-0.8,83.2c-0.1,5.2,5.9,3.6,6.8,0.4l7-77.4L590.9,555.5z"/>
	<path class="st28" d="M589.3,527.5l-0.4,98c0,0-4,5.2-9.4-2.5c-1.2-10.1-2.5-20-1.9-30.8c-5.6-32.1-5.3-50.8-4.1-67.5L589.3,527.5z
		"/>
	<path class="st29" d="M572.9,534.4l11.9-5.3l3,1.5l-0.6-5.3H609l-9.5,105.3c0,0-4.2,5.9-9.8-0.5l-0.2-73.3c0-4-2.5-4.6-6.1-6.4
		C568.9,545.6,572.5,540.1,572.9,534.4z"/>
	<path class="st11" d="M596.9,471.8c-1.6,6.6-6.6,6.5-10.9,2.4c-4.3-4.1-6.2-10.7-4.6-17.3c1.6-6.6,6.4-8.6,10.7-4.5
		C596.3,456.6,598.5,465.2,596.9,471.8z"/>
	<path class="st11" d="M603.7,469.5c-1.6,6.6-8.5,9.2-12.8,5.1c-4.3-4.1-6.5-12.8-4.8-19.4c1.6-6.6,9.3-9.3,13.6-5.2
		C604,454.2,605.3,462.9,603.7,469.5z"/>
	<path class="st11" d="M583.7,489.7l-0.5-0.2c-1.8-0.8-1.5-3.4-0.4-5.9l5.1-13.7c1.1-2.4,3.5-3.7,5.3-2.9l0.5,0.2
		c1.8,0.8,2.5,3.5,1.4,5.9l-4.4,13.8C589.6,489.3,585.5,490.5,583.7,489.7z"/>
	<path class="st14" d="M581.6,469.1c0,0,0.5,3.6,7.4,4c6.5,0.4,5.4-9.4,11.6-10.7c6.8-1.4,7-8.9,4.2-12c-2.8-3.2-10.5-4.6-15.9-1.9
		C583.4,451.1,577.4,453.1,581.6,469.1z"/>
	<path class="st11" d="M600,467c-0.4,1.6-2,2.6-3.6,2.2c-1.6-0.4-2.6-2-2.2-3.6c0.4-1.6,2-2.6,3.6-2.2
		C599.4,463.8,600.4,465.4,600,467z"/>
	<path class="st6" d="M571.7,496.8l-0.4,34.8c0,0-2,6.6,16.7,10.8c15.3,3.4,19.7-0.4,20.5-2.1l1.7-37.1l13.7,7.6c0,0-4-17.9-22-27.1
		c-3.3-1.7-8.1-3.7-12.1-5.2c-5.9-2.3-8.5-1.3-13.7,2.3C573.3,482.6,571.7,496.8,571.7,496.8z"/>
	<path class="st6" d="M600.6,497.4l17,17.1c5.8,5.8,15.5,4.5,19.6-2.7l3.3-21.2c0.2-1.4-1-2.6-2.4-2.3l-3,0.6
		c-0.7,0.2-1.3,0.7-1.5,1.4l-3.2,11c-1.8,2.3-5.3,2.5-7.3,0.3c-5-5.2-13.3-13.7-16-14.1C603.1,487.1,600.6,497.4,600.6,497.4z"/>
	<path class="st10" d="M587.9,455.8c-0.2,2.8-2.4,5-4.8,4.8c-2.4-0.2-4.2-2.6-4-5.5c0.2-2.8,2.4-5,4.8-4.8
		C586.3,450.6,588.1,453,587.9,455.8z"/>
	<path class="st14" d="M584.3,455.1c0.6-3.9-4.7-5.8-6.9-2.5c-0.7,1-1.3,2.3-1.8,4.1c-3.4,11.1-22.3,8.1-14.5,28.7
		c0,0-9.5,12.4,5.9,19.1c2.5,1.1,5.4,0,8.3-2c7.3-5.1,10.3-14.4,8.1-23c-0.8-3-0.9-6.3,0.4-9c1.7-3.4,2.3-7.3,0.9-10.9
		C584.3,458,584.1,456.5,584.3,455.1z"/>
	<path class="st6" d="M596.6,480.9c0,0-11.6-7-14.6-3.8C582,477.1,584.2,486,596.6,480.9z"/>
	<path class="st30" d="M608.5,540.2l0.8-18l5.5-10.6l-7.8-8.3c0,0-0.8,38.6-9.6,40.2C597.4,543.6,605.8,545.4,608.5,540.2z"/>
</g>
<ellipse class="st31" cx="581.1" cy="373" rx="32.9" ry="17.2"/>
<g>
	<path class="st11" d="M634,223.6L634,223.6c-0.9-1.5-3-2-4.5-1.1l-5.3,3.3c-1.5,0.9-2,3-1.1,4.5l0,0c0.9,1.5,3,2,4.5,1.1l5.3-3.3
		C634.5,227.2,635,225.1,634,223.6z"/>
	<path class="st11" d="M527.4,233.4L527.4,233.4c-0.8-1.6-2.8-2.3-4.4-1.5l-5.6,2.8c-1.6,0.8-2.3,2.8-1.5,4.4l0,0
		c0.8,1.6,2.8,2.3,4.4,1.5l5.6-2.8C527.6,237,528.2,235.1,527.4,233.4z"/>
	<path class="st9" d="M587.8,189.3c0,0,6.4,1.7,6.5,5s-0.6,6.3-0.6,6.3l-21.6-4.3l2.2-8.9L587.8,189.3z"/>
	<path class="st9" d="M555.6,361.4l11.9-8.3c1.8-0.6,3.9-0.7,6.4,0c1.1,0.3,1.3-0.5,1.2,0.5l1.1,4.4c1,2.9-1.3,4.7-4.6,5.8
		l-11.4,3.4c-2.4,0.8-5.7,0.4-7.4-0.9l-0.5-0.4C550.5,364.6,553.1,362.8,555.6,361.4z"/>
	<path class="st32" d="M575,354.4c-0.2,3.4-8.4,3-8.3-0.4l0.5-11.1l8.3,0.4L575,354.4z"/>
	<path class="st6" d="M576.3,350.2c-3.5,2.6-6.9,2.5-10.4-0.2c0,0-6.4-68.3-4.8-103.4l26-8.4C581.1,280.5,576.3,350.2,576.3,350.2z"
		/>
	<path class="st32" d="M604.9,365.7c0.3,3.4-7.9,4.1-8.3,0.8l-1-11l8.3-0.8L604.9,365.7z"/>
	<path class="st6" d="M605.6,361.4c-3.5,3-7,3.5-10.3,1.3c0,0-15.8-66.8-19.1-101.8l24.6-11.9C600.7,291.6,605.6,361.4,605.6,361.4z
		"/>
	<path class="st30" d="M580.9,293.6l-1.1,9.6l-5.8-38.9c1.3,0.4,1.3-1.2,2.7-0.9L580.9,293.6z"/>
	<path class="st33" d="M558.4,250.7c0.7-12.1,1.4-23.2,0.5-38.4c1.2-20.8,9.6-28,22.4-22.5l5.3,1.8c15.3,9.5,23.4,9.5,19.5,26.1
		l-5,36.5C600.1,273.1,556.1,272.8,558.4,250.7z"/>
	<polygon class="st34" points="595.5,222.1 600.6,250.9 601.3,253.7 603.1,240.1 	"/>
	<path class="st33" d="M594.4,218.7l12.3,29.5c1,1.8,9.9-0.1,10.1-3.1c0.4-6.3-6.5-39.8-15.5-44.7
		C593.9,196.4,590.9,208.3,594.4,218.7z"/>
	<path class="st33" d="M555.8,201.5L543.7,231c-0.6,2,4.8,11.7,7,9.6c4.7-4.2,25.8-37.4,22.9-47.3
		C571.2,185.4,560.7,191.6,555.8,201.5z"/>
	<g>
		<g>
			<path class="st6" d="M593,195.2c0,0,0.5,5.7-8.1,9.9c-4.4,2.2-6.9,6.2-8.1,9.5c-0.8,2-1.9,0.9-1.9-1.2c-0.2-5.6-0.3-7.2-1.1-11.3
				c-1.4-6.7,2.1-16.3,2.5-16.4C576.5,185.7,593,195.2,593,195.2z"/>
		</g>
	</g>
	<path class="st9" d="M573.1,219c-0.1,0.8,0.5,1.4,1.3,1.5c0.8,0.1,1.4-0.5,1.5-1.3c0.1-0.8-0.5-1.4-1.3-1.5S573.2,218.3,573.1,219z
		"/>
	<path class="st9" d="M572.8,224.4c-0.1,0.8,0.5,1.4,1.3,1.5c0.8,0.1,1.4-0.5,1.5-1.3c0.1-0.8-0.5-1.4-1.3-1.5
		C573.6,223,572.9,223.6,572.8,224.4z"/>
	<path class="st9" d="M581.9,190.2c0,0-8.1,1.9-6.9,9.5l-0.5,8.8c0,0-5.4-10.5-1.8-19.6C576.4,179.7,581.9,190.2,581.9,190.2z"/>
	<path class="st9" d="M578.3,190.4c0,0,1.6,2.3,2.6,2.8c1,0.4,14-5.9,12.3-16.8c-1.1-6.9-14.1-4.7-14.1-4.7L578.3,190.4z"/>
	<path class="st11" d="M584.5,200.2l-0.6,0.1c-2.1,0.4-4.2-1-4.6-3.1l-2.2-12c-0.4-2.1,1-4.2,3.1-4.6l0.6-0.1c2.1-0.4,4.2,1,4.6,3.1
		l3.8,11.2C589.7,197,586.7,199.8,584.5,200.2z"/>
	<path class="st15" d="M578.3,191.7c0,0,5.2,0,8.4-5c0,0-3.1,7.6-7.8,8.3L578.3,191.7z"/>
	<path class="st9" d="M589.4,189.7c0,0,5.1,7.3-5.5,11.9c0,0-4.2,3.8-4.6,8.2c0,0,3.6-2.4,5.7-3.8S602.4,196.7,589.4,189.7z"/>
	
		<ellipse transform="matrix(2.239808e-02 -0.9997 0.9997 2.239808e-02 383.451 750.7742)" class="st11" cx="575.6" cy="179.3" rx="12.2" ry="6.9"/>
	<path class="st11" d="M587.1,186c-2.4,5.3-12.1,8.1-15.1,4c-3-4.2,0-13.6,2.5-18.9c2.4-5.3,6.8-6.3,9.8-2.1S589.5,180.7,587.1,186z
		"/>
	<path class="st18" d="M581.6,172.4c0,0-1.8,10.7,6.5,13.6c0,0,9.9-5,3.5-15.8c-5.7-9.5-16.1-3.1-16.1-3.1L581.6,172.4z"/>
	<path class="st9" d="M568.7,178.9c0,0,1.4-4.6,7.1-6.2l-4.3-2.9C571.6,169.9,567,170.6,568.7,178.9z"/>
	<path class="st18" d="M585.7,179c-1.7-2.6-5.7-2.8-11.5-1.1c-0.9,0.3-1.8,0.4-2.7,0.1c-4.2-1.1-4.5-6.4-4.5-6.4
		c-0.7-3.6,1.7-5,5.3-5.7l9.3-1.9c5.2-1.1,10,3.5,10.7,7l0.2,0.6C593.1,175.2,589.2,178.3,585.7,179z"/>
	<path class="st11" d="M589.1,185.7c-0.6,1.3-2.1,1.9-3.4,1.3c-1.3-0.6-1.9-2.1-1.3-3.4c0.6-1.3,2.1-1.9,3.4-1.3
		C589.1,182.9,589.7,184.4,589.1,185.7z"/>
	<path class="st11" d="M607.8,242.4l16-16l4.7,4.4l-12.7,20c-2.1,2.9-6.6,2.7-8.4-0.4l-0.5-0.9C605.6,247.2,606,244.3,607.8,242.4z"
		/>
	<path class="st11" d="M546.9,242.6l-22.8-3.9l1.8-6.1l21.2-1.6c3.6-0.3,6.3,3.2,5.1,6.7l-0.6,1.9C551,241.5,549,242.8,546.9,242.6z
		"/>
	<path class="st9" d="M596.7,366.5l0.7,7c0.1,0.8,0.3,1.6,0.7,2.4c1,2.2,3.4,6.6,5,6.7c2.1,0.1,5.7-4.8,5.2-9.8
		c-0.5-4.9-3.2-7-3.2-7C601.9,367.1,599.1,367.6,596.7,366.5z"/>
</g>
<path class="st0" d="M870,542.9c-3.1-6.1-10.4-8-16.3-4.3c-0.1,0-0.1,0.1-0.2,0.1l0,0c0,0-156.3,98.2-156.6,98.5l-9,15.6l0,0
	l-8.6,13.1l17.6-4.4l13.7-3c0.4-0.5,154.2-97.7,154.2-97.7l0,0c0.1,0,0.1-0.1,0.2-0.1C870.8,557,873.1,549,870,542.9z"/>
<g>
	<path class="st35" d="M851.3,529.5c-0.1,0.1-0.2,0.1-0.2,0.2l0,0l-24.3,15.3c-6.8,4.3-9,13.3-5,20.2c4,6.9,12.7,9.1,19.5,4.8
		l24.3-15.3l0,0c0.1,0,0.2-0.1,0.2-0.1c6.8-4.3,9-13.3,5-20.2C866.8,527.4,858.1,525.2,851.3,529.5z"/>
	<polygon class="st4" points="853.3,562.7 714.3,650 703.7,637.2 851.1,544.3 	"/>
	<path class="st5" d="M780,589.1l-76.4,48.1c-2.6-6.7-6.7-1.3-7.2-10.5l138.3-87c10.7-3.2,15.1-0.7,16.9,4.2L780,589.1"/>
	<path class="st2" d="M837,538.4c-0.1,0.1-0.2,0.1-0.2,0.2l0,0l-4.7,2.9c6.6-3.2,14.5-0.7,18.3,5.9c4.1,7.1,1.9,16.2-4.8,20.5
		c-0.1,0.1-0.2,0.1-0.2,0.1l0,0l6.3-3.8l0,0c0.1,0,0.2-0.1,0.2-0.1C864.3,555.8,849.5,530.2,837,538.4z"/>
	<path class="st2" d="M850.5,547.4c-4.1-7.1-10.3-11.1-17.1-6.8c-0.1,0.1-2.7,1.8-2.8,1.9l0,0l-4.7,2.9c8.9-5.1,25.8,17.8,13.5,26.4
		c-0.1,0.1-0.2,0.1-0.2,0.1l0,0l6.3-3.8l0,0c0.1,0,0.2-0.1,0.2-0.1C852.5,563.7,854.6,554.5,850.5,547.4z"/>
	<path class="st2" d="M695.5,627.2l-17.3,31.7l34.6-7.6C719.5,643.3,702.4,622.2,695.5,627.2z"/>
	<path class="st5" d="M676.4,659.9l9.4-15c0,0,1.4-1.6,3.8,1.3c2.4,2.9,3.2,0.4,5.4,3.9c2.3,3.5,1.8,4.7,1.8,4.7L676.4,659.9z"/>
</g>
<g>
	<g>
		<path class="st28" d="M325.1,436.5L325.1,436.5c-0.6,1.3,1.8-4.9,0.9-3.8c-2,2.2-6.9,10.2-9.8,11.1c-3.5,1.1-0.6-1.2-0.6-1.2
			s-29-15.6-28.4-16.4c4.8-6.5,9.3-9.9,18.4-6.3C316,423.7,328,430.2,325.1,436.5z"/>
	</g>
	<path class="st9" d="M279.5,473.5l-6,2.1c-4.6,0.2-7-0.1-8.2,1.6l-0.3,0.5c-1.2,1.7-0.1,3.3,2.4,3.4l13,2.2
		c2.5,0.1,3.5-1.5,4.4-3.6c0,0,0.5-2.5-0.9-5.2C282.8,472.6,281.5,473.6,279.5,473.5z"/>
	<g>
		<g>
			<path class="st29" d="M316.3,460.8c-5.4-3.9-21.9-18.3-27.7-21.7c-0.9-0.6-1.9-1.1-2.9-1.6c-0.2-0.1-0.3-0.2-0.5-0.2
				c-0.5-0.2-0.5-0.6,0,0c0.4,0.4,0.7,0.2,0.2,0.1c-0.2-0.1-0.5-0.2-0.7-0.2c-0.3-0.1-0.6-0.1-0.9-0.2c-1-0.3,1.9,0.1,0.7,0.1
				c-1.2,0,0.5-0.1,0.9-0.2c-1.2,0.3,1.3-0.7,0.8-0.3c-0.6,0.3,1.5-1.3,0.7-0.5c0.3-0.3,1.1-1.6,0.6-0.6c-0.1,0.1,0.5-1.8,0.3-0.6
				c-0.1,0.3-0.1,0.7-0.2,1c-0.3,1,0.1-1.8,0.1-0.4c0,0.4-0.1,0.8-0.1,1.2c0,1.1,0,2.2,0,3.3c0.2,3.9,0,7.7,0,11.6
				c0,6.4-0.1,12.8,0.4,19.2c0.2,3.5-3.3,6.9-6.7,6.7c-3.8-0.2-4-3.7-4.1-7.4c-0.4-12.1,0-21.4-0.3-32c-0.1-4.4-0.7-7.1,2.7-10.4
				c4.3-4.1,11.9-4.9,16.6-2.6c7,3.4,12.5,8.1,18.8,12.6c2.9,2.1,20,9.4,18,12.7C331.1,453.2,316.3,460.8,316.3,460.8z"/>
		</g>
	</g>
	<path class="st4" d="M372.6,498L372.6,498c0.9-0.1,1.6-1,1.4-1.9l-8.1-54.4c-0.1-0.9-1-1.6-1.9-1.4l0,0c-0.9,0.1-1.6,1-1.4,1.9
		l8.1,54.4C370.8,497.5,371.7,498.2,372.6,498z"/>
	<path class="st4" d="M333.1,521.2L333.1,521.2c1-0.1,1.7-1.1,1.5-2.1l-9.4-63.5c-0.1-1-1.1-1.7-2.1-1.5l0,0c-1,0.1-1.7,1.1-1.5,2.1
		l9.4,63.5C331.1,520.6,332.1,521.3,333.1,521.2z"/>
	<g>
		<path class="st36" d="M264.2,399.7l27.4-16.2c1.5-0.8-5.6-4.8-7.2-5.7l-0.8-4.3c-1.6-0.9,2.3-4.4,0.8-3.5l-35.9,20.7
			c-1.5,0.8-1.4,2.3,0.2,3.2l10,5.8C260.3,400.5,262.8,400.5,264.2,399.7z"/>
		<path class="st4" d="M254.8,397.1l0-1.6l1.3,1.1l0.3-0.6l31.7-18.3c0.4-0.2,1.1-0.2,1.6,0.1l13.7,7.9v-0.2l2.1,1l0.3-0.1l0,1
			c0,0.2-0.1,0.3-0.2,0.4l-32.9,19.1c-0.4,0.2-1.1,0.2-1.5,0l-15.8-9.1C254.9,397.4,254.8,397.2,254.8,397.1L254.8,397.1z"/>
		<path class="st6" d="M272.4,405.4l32.9-19c0.4-0.2,0.3-0.6-0.1-0.9l-15.8-9.1c-0.4-0.3-1.1-0.3-1.5-0.1l-32.9,19
			c-0.4,0.2-0.3,0.6,0.1,0.9l15.8,9.1C271.4,405.6,272.1,405.6,272.4,405.4z"/>
		<polygon class="st0" points="269.8,398.8 295.4,384 287.5,379.4 262,394.2 		"/>
		<polygon class="st37" points="269.5,399.5 296.7,383.8 287.7,378.6 260.4,394.3 		"/>
		<g>
			<path class="st6" d="M251.5,372.8c-0.4,0.3-0.7,0.8-0.7,1.3l3.4,21.1c0.1,0.5,0.5,0.6,0.9,0.4l32.4-18.7c0.4-0.3,0.7-0.8,0.7-1.3
				l-3.4-21.1c-0.1-0.5-0.5-0.6-0.9-0.4L251.5,372.8z"/>
		</g>
		<path class="st6" d="M249.5,370.9C249.5,370.9,249.5,370.9,249.5,370.9C249.5,370.9,249.5,370.9,249.5,370.9
			C249.5,370.8,249.5,370.8,249.5,370.9C249.5,370.8,249.5,370.8,249.5,370.9c0-0.1,0-0.1,0-0.1c0,0,0,0,0,0c0,0,0,0,0,0
			c0,0,0,0,0,0c0,0,0,0,0,0c0,0,0,0,0,0c0,0,0,0,0,0c0,0,0,0,0,0c0,0,0,0,0,0c0,0,0,0,0,0c0,0,0,0,0,0c0,0,0,0,0,0c0,0,0,0,0,0
			c0,0,0,0,0,0c0,0,0,0,0,0c0,0,0,0,0,0c0,0,0,0,0,0c0,0,0,0,0,0c0,0,0,0,0,0c0,0,0,0,0,0c0,0,0,0,0,0c0,0,0,0,0,0c0,0,0,0,0,0
			c0,0,0,0,0,0c0,0,0,0,0,0c0,0,0,0,0,0c0,0,0,0,0,0c0,0,0,0,0,0c0,0,0,0,0,0c0,0,0,0,0,0c0,0,0,0,0,0c0,0,0,0,0,0c0,0,0,0,0,0
			c0,0,0,0,0-0.1c0,0,0,0,0,0c0,0,0,0,0,0c0,0,0,0,0,0c0,0,0,0,0,0c0,0,0,0,0,0c0,0,0,0,0,0c0,0,0,0,0,0c0,0,0,0,0,0c0,0,0,0,0,0
			c0,0,0,0,0,0c0,0,0,0,0,0c0,0,0,0,0,0c0,0,0,0,0,0c0,0,0,0,0,0c0,0,0,0,0,0c0,0,0,0,0,0c0,0,0,0,0,0c0,0,0,0,0,0c0,0,0,0,0,0
			c0,0,0,0,0,0c0,0,0,0,0,0c0,0,0,0,0,0c0,0,0,0,0,0c0,0,0,0,0,0c0,0,0,0,0,0c0,0,0,0,0,0c0,0,0.8-0.5,0.8-0.5l1,0.6
			c0,0-0.8,0.4-0.8,0.4c0,0,0,0,0,0c0,0,0,0,0,0c0,0,0,0,0,0c0,0,0,0,0,0c0,0,0,0,0,0l0,0c0,0,0,0,0,0c0,0,0,0,0,0c0,0,0,0,0,0
			c0,0,0,0,0,0c0,0,0,0,0,0c0,0,0,0,0,0c0,0,0,0,0,0c0,0,0,0,0,0.1c0,0,0,0,0,0c0,0,0,0,0,0c0,0,0,0,0,0c0,0,0,0,0,0c0,0,0,0,0,0
			c0,0,0,0,0,0c0,0,0,0,0,0c0,0,0,0,0,0.1c0,0,0,0,0,0c0,0,0,0,0,0.1c0,0,0,0,0,0c0,0,0,0,0,0.1c0,0,0,0,0,0c0,0,0,0,0,0.1
			c0,0,0,0,0,0c0,0,0,0,0,0.1c0,0,0,0,0,0c0,0,0,0,0,0.1c0,0,0,0,0,0c0,0,0,0,0,0.1c0,0,0,0,0,0c0,0,0,0,0,0.1c0,0,0,0,0,0
			c0,0,0,0,0,0c0,0,0,0,0,0s0,0,0,0c0,0,0,0,0,0c0,0,0,0,0,0c0,0,0,0,0,0.1l0.1,0.5c0,0,0.2-0.1,0.2-0.1l1,0.5c0,0-0.2,0.1-0.2,0.1
			c0,0,0,0,0,0c0,0,0,0,0,0c0,0,0,0,0,0c0,0,0,0,0,0c0,0,0,0,0,0l0,0h0c0,0,0,0,0,0c0,0,0,0,0,0c0,0,0,0,0,0c0,0,0,0,0,0
			c0,0,0,0,0,0c0,0,0,0,0,0c0,0,0,0,0,0.1c0,0,0,0,0,0c0,0,0,0,0,0c0,0,0,0,0,0c0,0,0,0,0,0c0,0,0,0,0,0c0,0,0,0,0,0c0,0,0,0,0,0
			c0,0,0,0,0,0.1c0,0,0,0,0,0c0,0,0,0,0,0.1c0,0,0,0,0,0c0,0,0,0,0,0.1c0,0,0,0,0,0c0,0,0,0,0,0.1c0,0,0,0,0,0c0,0,0,0,0,0.1
			c0,0,0,0,0,0c0,0,0,0,0,0.1c0,0,0,0,0,0c0,0,0,0,0,0.1c0,0,0,0,0,0c0,0,0,0,0,0l3,18.7c0,0.1,0.4,0.7,0.3,0.7l-0.3-0.2l0.3,2
			c0,0.1,0.4,0.7,0.3,0.7l-0.9-0.8c-0.2-0.2-0.3-0.4-0.4-0.6l-3.3-20.4c0-0.1,0-0.2,0-0.2c0,0,0,0,0,0c0,0,0,0,0,0c0,0,0,0,0,0
			c0,0,0,0,0,0c0,0,0,0,0,0c0,0,0,0,0,0c0,0,0,0,0,0c0,0,0,0,0,0c0,0,0,0,0,0c0,0,0,0,0,0c0,0,0,0,0,0c0,0,0,0,0,0c0,0,0,0,0,0
			c0,0,0,0,0,0l-0.3-1.9c0-0.1,0-0.2,0-0.2c0,0,0,0,0,0c0,0,0,0,0,0c0,0,0,0,0,0c0,0,0,0,0,0c0,0,0,0,0,0
			C249.5,371,249.5,371,249.5,370.9C249.5,371,249.5,370.9,249.5,370.9C249.5,370.9,249.5,370.9,249.5,370.9
			C249.5,370.9,249.5,370.9,249.5,370.9C249.5,370.9,249.5,370.9,249.5,370.9z"/>
		<path class="st37" d="M284.7,395.7l7.3-4.1c0.1,0,0.1-0.1,0-0.2l-3.1-1.8c-0.1,0-0.2-0.1-0.3,0l-7.3,4.1c-0.1,0-0.1,0.1,0,0.2
			l3.1,1.8C284.4,395.8,284.6,395.8,284.7,395.7z"/>
		<path class="st6" d="M250.4,369.9l0.7,0.4c0,0,0.1,0,0.1,0l32.1-18.5l0,0l0.2-0.1c0,0,0,0,0,0c0,0,0,0,0,0c0,0,0.1,0,0.1,0
			c0,0,0,0,0,0c0,0,0.1,0,0.1,0c0,0,0,0,0,0c0,0,0.1,0,0.1,0c0,0,0,0,0,0c0,0,0,0,0.1,0c0,0,0,0,0,0c0,0,0,0,0.1,0c0,0,0,0,0,0
			c0,0,0,0,0,0c0,0,0,0,0,0c0,0,0,0,0,0c0,0,0.1,0,0.1,0l-0.9-0.5c0,0-0.1,0-0.1,0c0,0,0,0,0,0c0,0,0,0,0,0c0,0,0,0-0.1,0
			c0,0,0,0,0,0c0,0,0,0,0,0c0,0,0,0,0,0c0,0,0,0,0,0c0,0,0,0,0,0c0,0,0,0,0,0c0,0,0,0,0,0c0,0,0,0,0,0c0,0,0,0,0,0c0,0,0,0,0,0
			c0,0,0,0,0,0c0,0,0,0,0,0c0,0,0,0,0,0c0,0,0,0,0,0c0,0,0,0,0,0c0,0,0,0,0,0l0,0c0,0,0,0,0,0c0,0,0,0,0,0c0,0,0,0,0,0c0,0,0,0,0,0
			c0,0,0,0,0,0s0,0,0,0c0,0,0,0,0,0c0,0,0,0-0.1,0l0,0l0,0c0,0,0,0,0,0h0l-32.1,18.5C250.3,369.7,250.3,369.8,250.4,369.9z
			 M282.8,351.2L282.8,351.2L282.8,351.2L282.8,351.2z"/>
		<g>
			<g>
				<path class="st4" d="M251.1,370.3c-0.4,0.3-0.7,0.8-0.7,1.3l3.4,21.1c0.1,0.5,0.5,0.6,0.9,0.4l32.4-18.7
					c0.4-0.3,0.7-0.8,0.7-1.3l-3.4-21.1c-0.1-0.5-0.5-0.6-0.9-0.4l-10.9,6.3l-19.1,11L251.1,370.3z"/>
			</g>
		</g>
		<g>
			<g>
				<g>
					<path class="st21" d="M252.3,371.7c-0.4,0.2-0.7,0.7-0.6,1.1l3.1,17.7c0.1,0.4,0.5,0.5,0.9,0.3l30.7-17.4
						c0.4-0.2,0.7-0.7,0.6-1.1l-3.1-17.7c-0.1-0.4-0.5-0.5-0.9-0.3L252.3,371.7z"/>
				</g>
			</g>
		</g>
		<g>
			<path class="st38" d="M286.9,372.3l-3.1-17.7c-0.1-0.4-0.5-0.5-0.9-0.3l-23.8,13.5L286.9,372.3z"/>
		</g>
		<line class="st37" x1="288.4" y1="376.3" x2="255.2" y2="395.5"/>
	</g>
	<path class="st33" d="M361.2,436.8c2.6-0.9-9.8-33.4-13-58.3L304,399.4c4.1,21.6,4.5,7.7,2.7,33.3C330,467,351,457.3,361.2,436.8z"
		/>
	<g>
		<g>
			<path class="st11" d="M294.3,412c-2.4,3.3-5,5.6-9,6.9c-5.1,1.7-24.3,1.1-30.1-0.2c-2.3-0.5-1.2-5.9,1.1-6.1
				c5.6-0.5,21.6-0.4,26.3-1.9c0.4-0.1,4.2-3,4.3-3.2C287.2,407.1,297.3,407.7,294.3,412z"/>
		</g>
	</g>
	<g>
		<path class="st39" d="M241,414.3l5.6,3.9c2.1,1.4,5.2,1.2,7-0.4l0,0c1.8-1.7,1.5-4.2-0.6-5.6l-5.6-3.9c-2.1-1.4-5.2-1.2-7,0.4v0
			C238.7,410.4,238.9,412.9,241,414.3z"/>
		<path class="st4" d="M242.4,413l5.6,3.9c2.1,1.4,5.2,1.2,7-0.4h0c1.8-1.7,1.5-4.2-0.6-5.6l-5.6-3.9c-2.1-1.4-5.2-1.2-7,0.4v0
			C240.1,409.1,240.3,411.6,242.4,413z"/>
		<g>
			<path class="st6" d="M243.7,407.2c0.7,0.2,1.2,0.5,1.7,0.9c0.4,0.3-0.2,0.9-0.5,0.5c-0.4-0.3-0.9-0.6-1.4-0.7
				C243,407.8,243.2,407.1,243.7,407.2L243.7,407.2z"/>
		</g>
	</g>
	<polygon class="st11" points="302.5,380.9 327.9,383.1 321,393.5 301.3,384.1 	"/>
	<path class="st33" d="M345.8,374.1c2.8,3,2.5,4.8,2.9,9.1c0.3,4.2-0.4,7.4-4.4,8.8L305,405.1c0,0-11-15.3,1.9-20.8
		c2.9-1.3,5.5-2.7,7.8-4.3c13.3-1.6,14.7-9.4,14.7-9.4C335.7,368.2,341.1,369,345.8,374.1z"/>
	<g>
		<g>
			<path class="st33" d="M313.8,397.7l-16,16.8c-5.4,3.9-14.5-7.7-10.3-11.3l16.1-16.8c2.7-2.3,6.3-2.3,8.3,0l0,0
				C314,388.8,316.3,395,313.8,397.7z"/>
		</g>
	</g>
	<g>
		<path class="st11" d="M316,368.2c2.4,5.8,7,7,10.3,2.7c3.3-4.3,4.1-12.5,1.8-18.2c-2.4-5.8-7-7-10.3-2.7
			C314.4,354.3,313.6,362.5,316,368.2z"/>
		<path class="st11" d="M307.5,367.6c2.4,5.8,9,7.2,12.3,2.9c3.3-4.3,4.1-12.5,1.8-18.2c-2.4-5.8-7-7-10.3-2.7
			C307.9,354,305.1,361.9,307.5,367.6z"/>
		<path class="st11" d="M324.7,376.4L324.7,376.4c1.8-1.3,4.2-2.1,3-3.9l-5.3-7.5c-1.3-1.8-3.8-2.3-5.6-1l-0.5,0.4
			c-1.8,1.3-2.3,3.8-1,5.6l4.3,9C320.6,380.7,322.8,377.7,324.7,376.4z"/>
		<path class="st14" d="M329.2,366.2c0,0,0,5.7-8.1,5.4c-5.8-0.2-5.2-9.7-11-10c-6.4-0.3-8.4-8-6.2-11.2s8.9-5.6,14.2-3.9
			S331,347.2,329.2,366.2z"/>
		<path class="st11" d="M310.5,364.8c0.6,1.4,2.2,2.1,3.6,1.5c1.4-0.6,2.1-2.2,1.5-3.6c-0.6-1.4-2.2-2.1-3.6-1.5
			C310.6,361.8,309.9,363.4,310.5,364.8z"/>
	</g>
	<path class="st6" d="M312.7,381.1c10.5-2.1,18.1,4,19-11.4c0,0-2.8-0.6-3.7,0.9c-1.6,2.7-3,5.4-7.3,5.4c-2.3,0-5.2-0.1-5.8,1
		L312.7,381.1z"/>
	<path class="st11" d="M298,384l3.9,1c1.5,0.4,3.1-0.5,3.5-2l0,0c0.4-1.5-0.5-3.1-2-3.5l-3.9-1c-1.5-0.4-3.1,0.5-3.5,2l0,0
		C295.6,382.1,296.5,383.6,298,384z"/>
	<path class="st11" d="M248.1,415.8l4.4,1.9c1.7,0.8,3.8,0,4.5-1.8l0,0c0.8-1.7,0-3.8-1.8-4.5l-4.4-1.9c-1.7-0.8-3.8,0-4.5,1.8l0,0
		C245.6,413,246.4,415,248.1,415.8z"/>
	<path class="st5" d="M365.8,447.9c2.7-1.7,4.5-4.6,4.8-7.8l4.1-37.2c0.9-6.1-4.5-7.8-11.6-3.6L334.5,416c-5.2,3-9.9,8.3-11.9,13.3
		l-10.8,27.4c-3.1,7.9,7.4,20.7,14.7,16.3L365.8,447.9z"/>
	<path class="st4" d="M288.6,495.1l-0.1,0c-0.9-0.1-1.6-1-1.4-1.9l6.6-44.7c0.1-0.9,1-1.6,1.9-1.4l0.1,0c0.9,0.1,1.6,1,1.4,1.9
		l-6.6,44.7C290.4,494.6,289.5,495.2,288.6,495.1z"/>
	<path class="st5" d="M288.6,457.3l26.9,16.5c4.4,2.7,7.7,1.4,7.5-2.8l-0.2-4c-0.2-4.2-4-9.8-8.4-12.5L287.5,438
		c-4.4-2.7-7.7-1.4-7.5,2.8l0.2,4C280.5,449,284.2,454.6,288.6,457.3z"/>
</g>
<path class="st5" d="M263.1,497.6c2.8-1.7,4.7-4.6,5.1-7.8l5.2-38.6c1.1-6.4-4.4-8.2-12-4.1l-30.2,16.7c-5.4,3-10.5,8.4-12.7,13.5
	l-11.9,28.2c-3.4,8.1,7.2,21.6,14.8,17.3L263.1,497.6z"/>
<g>
	<g>
		<g>
			<g>
				<path class="st40" d="M651.4,214c0,0,9-7.7,18.9-2.2c7.5,4.2,2.9,4,12.7,6.9c5.8,1.7,19.2-8.8,32.7-2.5
					c24.5,11.4,42.6-12.8,50.5,0.2l-21.1,61.9l-96.9-55L651.4,214z"/>
			</g>
		</g>
		<g>
			<g>
				<g>
					<path class="st2" d="M647.6,223.2C647.5,223.2,647.5,223.2,647.6,223.2c-0.4-0.3-0.6-0.8-0.4-1.2l23.9-70.9
						c0.1-0.4,0.5-0.5,0.8-0.3c0.3,0.2,0.5,0.8,0.3,1.2l-23.9,70.9C648.2,223.2,647.8,223.4,647.6,223.2z"/>
				</g>
			</g>
		</g>
		<g>
			<g>
				<g>
					<path class="st2" d="M745.9,279.8C745.8,279.8,745.8,279.8,745.9,279.8c-0.4-0.3-0.6-0.8-0.4-1.2l23.9-70.9
						c0.1-0.4,0.5-0.5,0.8-0.3c0.3,0.2,0.5,0.8,0.3,1.2l-23.9,70.9C746.5,279.9,746.2,280,745.9,279.8z"/>
				</g>
			</g>
		</g>
		<g>
			<g>
				<g>
					<path class="st2" d="M715.9,261.6c0,0-0.1,0-0.1-0.1c-0.3-0.2-0.5-0.8-0.3-1.2l25-73.4c0.1-0.4,0.5-0.5,0.8-0.3
						c0.3,0.2,0.5,0.8,0.3,1.2l-25,73.4C716.5,261.6,716.2,261.7,715.9,261.6z"/>
				</g>
			</g>
		</g>
		<g>
			<g>
				<g>
					<path class="st2" d="M680.3,240.8C680.3,240.8,680.3,240.8,680.3,240.8c-0.4-0.3-0.6-0.8-0.4-1.2l25.1-74.3
						c0.1-0.4,0.5-0.5,0.8-0.3c0.3,0.3,0.5,0.8,0.3,1.2L681,240.5C680.9,240.9,680.6,241,680.3,240.8z"/>
				</g>
			</g>
		</g>
		<g>
			<g>
				<g>
					<path class="st2" d="M655.9,200.6c-0.4-0.2-0.7-0.6-0.8-1.2c-0.2-0.8,0.1-1.6,0.7-1.7l21.7-4.8c0.1,0,0.1,0,0.2,0l18.8,1
						c0.1,0,0.2,0,0.2,0.1l29.8,10.7l40.2-6.5c0.6-0.1,1.2,0.5,1.3,1.3c0.2,0.8-0.2,1.6-0.7,1.7l-40.4,6.5c-0.1,0-0.3,0-0.4,0
						l-29.9-10.8l-18.5-1l-21.6,4.8C656.3,200.7,656.1,200.7,655.9,200.6z"/>
				</g>
			</g>
		</g>
	</g>
	<g>
		<path class="st2" d="M761.5,205.9c-0.2-0.1-0.5-0.4-0.6-0.7c-0.4-0.7-0.2-1.7,0.2-2l4.3-3.3l-4.3-2c-0.6-0.3-1-1.1-0.9-1.9
			c0.1-0.8,0.7-1.2,1.3-0.9l6.8,3.1c0.4,0.2,0.8,0.7,0.9,1.3c0.1,0.6-0.1,1.2-0.4,1.4l-6.3,4.9C762.1,206,761.8,206,761.5,205.9z"/>
	</g>
</g>
<line class="st41" x1="678.9" y1="128.3" x2="707.1" y2="144.5"/>
<g>
	<polygon class="st42" points="848.4,251.3 824.7,321.3 872,347.6 895.7,277.6 	"/>
	<polygon class="st42" points="835.6,244.1 790.2,218.8 766.5,288.9 811.9,314.2 	"/>
</g>
<polygon class="st42" points="850.8,401.2 628.6,272.4 638,244.4 860.8,373.8 "/>
<g>
	<ellipse class="st31" cx="758.6" cy="470.2" rx="25.5" ry="9.7"/>
	<path class="st4" d="M758.9,475.8c-6,3.5-15.7,3.4-21.7,0c-6-3.5-6.1-9.1-0.1-12.6c6-3.5,15.7-3.4,21.7,0
		C764.8,466.7,764.8,472.3,758.9,475.8z"/>
	<polygon class="st20" points="769.8,460.1 726,460.7 726,414.2 769.8,414.2 	"/>
	<ellipse transform="matrix(1 -2.672017e-03 2.672017e-03 1 -1.2278 2)" class="st20" cx="747.9" cy="460.5" rx="21.9" ry="12.7"/>
	<path class="st4" d="M769.8,426.9c-0.3-0.2-0.6-0.4-1-0.6c-11.7-6.7-30.5-6.8-42.1-0.1c-0.2,0.1-0.5,0.3-0.7,0.4V450
		c0.3,0.2,0.6,0.3,0.8,0.5c11.7,6.7,30.5,6.8,42.1,0.1c0.3-0.2,0.6-0.3,0.8-0.5V426.9z"/>
	
		<ellipse transform="matrix(5.271195e-03 -1 1 5.271195e-03 309.9826 1179.4263)" class="st20" cx="747.8" cy="433.9" rx="17.2" ry="29.8"/>
	<rect x="718" y="423.4" class="st20" width="59.6" height="11"/>
	
		<ellipse transform="matrix(5.271195e-03 -1 1 5.271195e-03 320.4449 1169.019)" class="st6" cx="747.8" cy="423.4" rx="17.2" ry="29.8"/>
	<g>
		<path class="st35" d="M801.4,360.1c0-27.2-24-49.2-53.6-49.2c-29.6,0-53.6,22-53.6,49.2c0,14.9,7.2,28.2,18.6,37.3
			c6.2,6.8,9.1,15.2,10.4,21.3c1.3,5.9,5.5,10.7,11.2,12.6c9.2,3.2,18.1,3.6,26.6,0.4c5.4-2,9.3-6.7,10.5-12.4
			c1.2-5.7,3.9-13.9,10.3-20.9c0.2-0.2,0.3-0.4,0.5-0.6C794,388.8,801.4,375.3,801.4,360.1z"/>
	</g>
	<path class="st43" d="M760.4,425.4c-7.2,4.2-18.9,4.1-26.2,0c-7.3-4.2-7.3-11-0.1-15.1c7.2-4.2,18.9-4.1,26.2,0
		C767.6,414.5,767.6,421.3,760.4,425.4z"/>
	<g>
		<path class="st43" d="M750.5,421.9c-0.8,0-1.4-0.6-1.4-1.4l0-36.4c-0.2,0-0.3-0.1-0.5-0.1c-1.8-0.3-3.5-0.8-5.2-1.4v34.7
			c0,0.8-0.6,1.4-1.4,1.4s-1.4-0.6-1.4-1.4v-35.9c-2.9-1.4-5.5-3.2-7.8-5.3c-3.9-3.7-6.3-8-6.8-11.9c-0.4-3.8,1.1-6.7,4.3-8.1
			c3-1.3,5.7-1.2,7.8,0.2c4.9,3.2,5.2,12.3,5.2,12.6c0,0,0,0,0,0v10.7c1.7,0.7,3.6,1.3,5.6,1.6c0.1,0,0.1,0,0.2,0
			c0.9-9.8,3-15.6,6.5-17.7c1.9-1.1,4-1.2,6.4-0.2c4.9,2.1,7.3,6.6,6,11.5c-1.3,4.8-6.5,9.6-15,9.6c-0.4,0-0.9,0-1.3,0l0,36.1
			C751.9,421.2,751.2,421.9,750.5,421.9z M752,381.6c7.8,0.4,12.4-3.5,13.5-7.5c0.9-3.5-0.8-6.6-4.5-8.2c-1.5-0.7-2.8-0.7-3.9,0
			C755.3,367.1,753,370.7,752,381.6z M734.5,357.9c-0.9,0-1.9,0.2-3,0.7c-2.5,1.1-2.8,3.4-2.6,5.2c0.5,4.4,4.7,10.6,11.8,14.5v-9.4
			c-0.1-2.2-0.9-8.4-3.9-10.4C736.1,358.2,735.3,357.9,734.5,357.9z"/>
	</g>
	
		<ellipse transform="matrix(0.4345 -0.9007 0.9007 0.4345 90.4236 849.758)" class="st44" cx="721.9" cy="352.9" rx="19" ry="13.7"/>
</g>
<g>
	<path class="st10" d="M808.1,137.8l82,48.2c3.2,1.9,6.9-0.1,8.1-4.5l8.6-31.1c1.2-4.4-0.4-9.6-3.7-11.5l-82-48.2
		c-3.2-1.9-6.9,0.1-8.1,4.5l-8.6,31.1C803.2,130.8,804.8,135.9,808.1,137.8z"/>
	<path class="st6" d="M872.6,147c-2.1,7.4,1.4,16.4,7.8,20.2c6.3,3.7,13.2,0.7,15.2-6.7c2.1-7.4-1.4-16.4-7.8-20.2
		C881.4,136.6,874.6,139.6,872.6,147z"/>
	<line class="st45" x1="869" y1="135.3" x2="819.9" y2="106.4"/>
	<line class="st45" x1="864.8" y1="150.5" x2="838.1" y2="134.9"/>
	<path class="st3" d="M791,199.3l82,48.2c3.2,1.9,6.9-0.1,8.1-4.5l8.6-31.1c1.2-4.4-0.4-9.6-3.7-11.5l-82-48.2
		c-3.2-1.9-6.9,0.1-8.1,4.5l-8.6,31.1C786.1,192.3,787.8,197.4,791,199.3z"/>
	
		<ellipse transform="matrix(0.9544 -0.2985 0.2985 0.9544 -24.7369 268.6137)" class="st6" cx="867" cy="215.3" rx="11.7" ry="15.3"/>
	<line class="st45" x1="852" y1="196.8" x2="802.8" y2="168"/>
	<line class="st45" x1="819.9" y1="197.5" x2="796.6" y2="183.9"/>
	<polygon class="st3" points="881.7,240.9 880.2,261 864.4,241.2 	"/>
	<polygon class="st10" points="804.8,125.4 796.2,141.3 817,143.1 	"/>
</g>
</svg>
